<svg xmlns="http://www.w3.org/2000/svg" width="163.839" height="163.839" fill-rule="evenodd" clip-rule="evenodd" image-rendering="optimizeQuality" shape-rendering="geometricPrecision" text-rendering="geometricPrecision" viewBox="0 0 1707 1707" id="alert"><path fill="#666" fill-rule="nonzero" d="M853 395l0 0c27 0 51 11 69 29l0 0 0 0 0 0c17 17 28 42 28 68l0 638c0 11-9 20-20 20l-153 0c-11 0-20-9-20-20l0-638c0-26 11-51 28-68l0 0 0 0 0 0c18-18 42-29 68-29zm0 40l0 0c-15 0-29 7-40 17l0 0c-10 10-16 24-16 40l0 618 113 0 0-618c0-16-6-30-17-40l0 0c-10-10-24-17-40-17zM803 1338l101 0c2 0 3-1 4-2 1-1 2-3 2-4l0-86c0-2-1-4-2-5-1-1-2-2-4-2l-101 0c-2 0-3 1-4 2-2 1-2 3-2 5l0 86c0 1 0 3 2 4 1 1 2 2 4 2zm101 40l-101 0c-13 0-24-5-33-14-8-8-13-20-13-32l0-86c0-13 5-25 13-33 9-8 20-14 33-14l101 0c13 0 24 6 32 14 9 8 14 20 14 33l0 86c0 12-5 24-14 32-8 9-19 14-32 14z"></path><path fill="#ffb300" fill-rule="nonzero" d="M1451 1626l-1195 0c-201,0 -319,-221 -221,-384l0 0 597 -1034c23,-41 56,-72 92,-93l0 0c40,-23 85,-34 129,-34l0 0c91,0 175,46 222,127l597 1034c99,171 -26,384 -221,384zm-1195 -129l1195 0 0 0c23,-1 45,-7 63,-18l0 0c61,-36 82,-110 46,-172l-597 -1034c-48,-84 -171,-84 -219,0l-598 1034c-35,62 -13,138 47,172l0 0c17,10 41,18 63,18z"></path></svg>