<svg xmlns="http://www.w3.org/2000/svg" enable-background="new 0 0 512 512" viewBox="0 0 512 512" id="analytics"><path fill="#DBF2FF" d="M489,344H23c-8.284,0-15-6.716-15-15V39c0-8.284,6.716-15,15-15h466c8.284,0,15,6.716,15,15v290
	C504,337.284,497.284,344,489,344z"></path><path fill="#21495F" d="M296.007,136c-2.496,0-4.955-1.165-6.517-3.351c-2.568-3.595-1.735-8.592,1.86-11.16l56-40
		c2.542-1.816,5.908-1.985,8.619-0.436l50.694,28.968l51.68-51.679c3.124-3.124,8.189-3.124,11.313,0
		c3.125,3.124,3.125,8.189,0,11.313l-56,56c-2.551,2.551-6.495,3.079-9.626,1.289L352.48,97.488l-51.83,37.021
		C299.241,135.517,297.616,136,296.007,136z"></path><path fill="#357599" d="M344,456H168l9.301-12.402C200.792,412.278,203.424,369.993,184,336l0,0h144l0,0
	c-19.424,33.993-16.792,76.277,6.699,107.598L344,456z"></path><path fill="#50B0E6" d="M489,344H23c-8.284,0-15-6.716-15-15v-33h496v33C504,337.284,497.284,344,489,344z"></path><path fill="#6E2A26" d="M304 328h-96c-4.418 0-8-3.582-8-8s3.582-8 8-8h96c4.418 0 8 3.582 8 8S308.418 328 304 328zM40 328h-8c-4.418 0-8-3.582-8-8s3.582-8 8-8h8c4.418 0 8 3.582 8 8S44.418 328 40 328z"></path><path fill="#E6B650" d="M72,328h-8c-4.418,0-8-3.582-8-8s3.582-8,8-8h8c4.418,0,8,3.582,8,8S76.418,328,72,328z"></path><path fill="#A5E650" d="M104,328h-8c-4.418,0-8-3.582-8-8s3.582-8,8-8h8c4.418,0,8,3.582,8,8S108.418,328,104,328z"></path><path fill="#50B0E6" d="M378.799,480H133.201c-9.741,0-16.076-10.251-11.72-18.963l11.221-22.442
	C139.626,424.747,153.78,416,169.262,416h173.477c15.482,0,29.635,8.747,36.559,22.595l11.221,22.442
	C394.875,469.749,388.539,480,378.799,480z"></path><path fill="#E65750" d="M104,72c-35.346,0-64,28.654-64,64c0,35.346,28.654,64,64,64c14.409,0,27.704-4.764,38.4-12.799L104,136V72z
	"></path><path fill="#E6B650" d="M192,112c0-35.346-28.654-64-64-64v64H192z"></path><path fill="#50B0E6" d="M200,136h-64l38.4,51.201C189.944,175.524,200,156.937,200,136z"></path><rect width="32" height="56" x="392" y="168" fill="#50B0E6"></rect><rect width="32" height="88" x="336" y="136" fill="#E6B650"></rect><rect width="32" height="40" x="280" y="184" fill="#A5E650"></rect><rect width="32" height="112" x="448" y="112" fill="#E65750"></rect><circle cx="296" cy="128" r="16" fill="#A5E650"></circle><circle cx="352" cy="88" r="16" fill="#E6B650"></circle><circle cx="408" cy="120" r="16" fill="#50B0E6"></circle><circle cx="464" cy="64" r="16" fill="#E65750"></circle><path fill="#E65750" d="M56 232H40c-4.418 0-8-3.582-8-8s3.582-8 8-8h16c4.418 0 8 3.582 8 8S60.418 232 56 232zM56 256H40c-4.418 0-8-3.582-8-8s3.582-8 8-8h16c4.418 0 8 3.582 8 8S60.418 256 56 256zM56 280H40c-4.418 0-8-3.582-8-8s3.582-8 8-8h16c4.418 0 8 3.582 8 8S60.418 280 56 280z"></path><path fill="#357599" d="M184 232H88c-4.418 0-8-3.582-8-8s3.582-8 8-8h96c4.418 0 8 3.582 8 8S188.418 232 184 232zM184 280H88c-4.418 0-8-3.582-8-8s3.582-8 8-8h96c4.418 0 8 3.582 8 8S188.418 280 184 280zM184 256H88c-4.418 0-8-3.582-8-8s3.582-8 8-8h96c4.418 0 8 3.582 8 8S188.418 256 184 256z"></path><path fill="#A5E650" d="M240,256h-16c-4.418,0-8-3.582-8-8s3.582-8,8-8h16c4.418,0,8,3.582,8,8S244.418,256,240,256z"></path><path fill="#21495F" d="M336,256h-72c-4.418,0-8-3.582-8-8s3.582-8,8-8h72c4.418,0,8,3.582,8,8S340.418,256,336,256z"></path><path fill="#A5E650" d="M240,280h-16c-4.418,0-8-3.582-8-8s3.582-8,8-8h16c4.418,0,8,3.582,8,8S244.418,280,240,280z"></path><path fill="#21495F" d="M320,280h-56c-4.418,0-8-3.582-8-8s3.582-8,8-8h56c4.418,0,8,3.582,8,8S324.418,280,320,280z"></path><rect width="32" height="48" x="416.19" y="334.286" fill="#21495F" transform="rotate(-27.177 432.182 358.307)"></rect><path fill="#50B0E6" d="M490.649,472.157L490.649,472.157c-11.792,6.054-26.258,1.402-32.312-10.39l-40.19-78.286l42.702-21.922
	l40.19,78.286C507.093,451.637,502.441,466.103,490.649,472.157z"></path><circle cx="392" cy="280" r="72" fill="#E65750"></circle><circle cx="392" cy="280" r="48" fill="#E6B650"></circle><path d="M489,16H23C10.318,16,0,26.318,0,39v290c0,12.682,10.318,23,23,23h159.782c7.023,18.024,7.978,37.652,3.06,56h-16.58
		c-18.632,0-35.382,10.353-43.714,27.017l-11.221,22.442c-3.295,6.589-2.949,14.265,0.924,20.532S125.834,488,133.201,488h245.598
		c7.367,0,14.078-3.742,17.951-10.009s4.219-13.942,0.924-20.532l-11.221-22.442C378.121,418.353,361.37,408,342.738,408H326.15
		c-4.916-18.348-3.962-37.977,3.061-56h27.944c10.539,5.121,22.362,8,34.846,8c4.601,0,9.105-0.412,13.496-1.161l8.997,17.526l0,0
		c-1.887,0.969-3.312,2.648-3.962,4.668c-0.65,2.02-0.47,4.215,0.499,6.103l40.19,78.286c5.665,11.034,16.895,17.382,28.521,17.382
		c4.913,0,9.898-1.135,14.562-3.528l0,0c15.697-8.059,21.911-27.385,13.853-43.083l-40.19-78.286
		c-2.018-3.931-6.839-5.48-10.771-3.463l0,0L455.941,352H489c12.682,0,23-10.318,23-23V39C512,26.318,501.682,16,489,16z M23,32h466
		c3.86,0,7,3.14,7,7v249h-24.401c0.263-2.632,0.401-5.3,0.401-8c0-17.996-5.976-34.62-16.044-48H480c4.418,0,8-3.582,8-8V112
		c0-4.418-3.582-8-8-8h-32c-4.418,0-8,3.582-8,8v104.044c-2.55-1.919-5.227-3.673-8-5.281V168c0-4.418-3.582-8-8-8h-32
		c-4.418,0-8,3.582-8,8v32.401c-2.708,0.27-5.377,0.674-8,1.209V136c0-4.418-3.582-8-8-8h-32c-4.418,0-8,3.582-8,8v88
		c0,2.078,0.799,3.965,2.098,5.387c-2.722,3.323-5.169,6.877-7.335,10.613H264c-4.418,0-8,3.582-8,8s3.582,8,8,8h51.683
		c-0.823,2.612-1.519,5.281-2.073,8H264c-4.418,0-8,3.582-8,8s3.582,8,8,8h48c0,2.7,0.138,5.368,0.401,8H16V39
		C16,35.14,19.14,32,23,32z M456,216v-96h16v96H456z M416,203.683c-5.132-1.617-10.484-2.732-16-3.282V176h16V203.683z M344.055,216
		H344v-72h16v62.7C354.313,209.192,348.963,212.314,344.055,216z M16,329v-25h299.683c3.838,12.177,10.521,23.099,19.258,32H23
		C19.14,336,16,332.86,16,329z M372.142,442.172l11.221,22.442c1.148,2.297,0.226,4.237-0.224,4.965
		c-0.45,0.728-1.773,2.42-4.341,2.42H133.201c-2.568,0-3.891-1.692-4.341-2.42c-0.45-0.728-1.372-2.668-0.224-4.965l11.221-22.442
		C145.462,430.963,156.729,424,169.262,424h173.477C355.271,424,366.538,430.963,372.142,442.172z M309.713,408H202.331
		c4.148-18.428,3.335-37.78-2.572-56h112.504C306.357,370.223,305.556,389.572,309.713,408z M328,280c0-35.29,28.71-64,64-64
		s64,28.71,64,64s-28.71,64-64,64S328,315.29,328,280z M493.922,443.499c4.029,7.849,0.922,17.512-6.926,21.541
		c-7.849,4.028-17.513,0.921-21.542-6.927l-36.537-71.169l28.468-14.615L493.922,443.499z M428.727,369.057l-7.5-14.61
		c5.007-1.973,9.767-4.433,14.224-7.328l7.511,14.63L428.727,369.057z M489,336h-39.941c8.737-8.901,15.42-19.823,19.258-32H496v25
		C496,332.86,492.86,336,489,336z"></path><path d="M304 312h-96c-4.418 0-8 3.582-8 8s3.582 8 8 8h96c4.418 0 8-3.582 8-8S308.418 312 304 312zM40 312h-8c-4.418 0-8 3.582-8 8s3.582 8 8 8h8c4.418 0 8-3.582 8-8S44.418 312 40 312zM72 312h-8c-4.418 0-8 3.582-8 8s3.582 8 8 8h8c4.418 0 8-3.582 8-8S76.418 312 72 312zM104 312h-8c-4.418 0-8 3.582-8 8s3.582 8 8 8h8c4.418 0 8-3.582 8-8S108.418 312 104 312zM104 208c15.722 0 30.662-4.98 43.205-14.403 3.531-2.652 4.245-7.664 1.595-11.196L112 133.333V72c0-4.418-3.582-8-8-8-39.701 0-72 32.299-72 72S64.299 208 104 208zM96 80.57V136c0 1.731.562 3.415 1.6 4.8l33.265 44.354C122.676 189.652 113.523 192 104 192c-30.878 0-56-25.122-56-56C48 107.837 68.897 84.463 96 80.57z"></path><path d="M128 120h64c4.418 0 8-3.582 8-8 0-39.701-32.299-72-72-72-4.418 0-8 3.582-8 8v64C120 116.418 123.582 120 128 120zM136 56.57c24.489 3.518 43.912 22.941 47.43 47.43H136V56.57zM136 128c-3.03 0-5.8 1.712-7.155 4.422-1.355 2.71-1.063 5.954.755 8.377L168 192c1.273 1.698 3.17 2.821 5.271 3.12.376.054.753.08 1.128.08 1.723 0 3.412-.557 4.805-1.604C197.505 179.85 208 158.856 208 136c0-4.418-3.582-8-8-8H136zM175.662 175.549L152 144h39.44C189.745 155.996 184.25 166.982 175.662 175.549zM280 232h32c4.418 0 8-3.582 8-8v-40c0-4.418-3.582-8-8-8h-32c-4.418 0-8 3.582-8 8v40C272 228.418 275.582 232 280 232zM288 192h16v24h-16V192zM296 152c13.234 0 24-10.766 24-24 0-2.303-.333-4.529-.941-6.639l19.191-13.708c3.898 2.735 8.638 4.347 13.75 4.347 5.981 0 11.454-2.204 15.661-5.837l16.728 9.559C384.138 117.112 384 118.539 384 120c0 13.234 10.766 24 24 24s24-10.766 24-24c0-3.701-.843-7.208-2.345-10.341l24.004-24.004C456.792 87.157 460.299 88 464 88c13.234 0 24-10.766 24-24s-10.766-24-24-24-24 10.766-24 24c0 3.701.843 7.208 2.345 10.341l-24.005 24.004C415.208 96.843 411.701 96 408 96c-5.981 0-11.454 2.204-15.661 5.837l-16.728-9.559C375.862 90.889 376 89.461 376 88c0-13.234-10.766-24-24-24s-24 10.766-24 24c0 2.303.333 4.529.941 6.639l-19.191 13.708C305.853 105.612 301.113 104 296 104c-13.234 0-24 10.766-24 24S282.766 152 296 152zM464 56c4.411 0 8 3.589 8 8s-3.589 8-8 8-8-3.589-8-8S459.589 56 464 56zM408 112c4.411 0 8 3.589 8 8s-3.589 8-8 8-8-3.589-8-8S403.589 112 408 112zM352 80c4.411 0 8 3.589 8 8s-3.589 8-8 8-8-3.589-8-8S347.589 80 352 80zM296 120c4.411 0 8 3.589 8 8s-3.589 8-8 8-8-3.589-8-8S291.589 120 296 120zM40 232h16c4.418 0 8-3.582 8-8s-3.582-8-8-8H40c-4.418 0-8 3.582-8 8S35.582 232 40 232zM40 256h16c4.418 0 8-3.582 8-8s-3.582-8-8-8H40c-4.418 0-8 3.582-8 8S35.582 256 40 256zM40 280h16c4.418 0 8-3.582 8-8s-3.582-8-8-8H40c-4.418 0-8 3.582-8 8S35.582 280 40 280zM184 216H88c-4.418 0-8 3.582-8 8s3.582 8 8 8h96c4.418 0 8-3.582 8-8S188.418 216 184 216zM184 264H88c-4.418 0-8 3.582-8 8s3.582 8 8 8h96c4.418 0 8-3.582 8-8S188.418 264 184 264zM184 240H88c-4.418 0-8 3.582-8 8s3.582 8 8 8h96c4.418 0 8-3.582 8-8S188.418 240 184 240zM224 256h16c4.418 0 8-3.582 8-8s-3.582-8-8-8h-16c-4.418 0-8 3.582-8 8S219.582 256 224 256zM224 280h16c4.418 0 8-3.582 8-8s-3.582-8-8-8h-16c-4.418 0-8 3.582-8 8S219.582 280 224 280zM392 224c-30.878 0-56 25.122-56 56s25.122 56 56 56 56-25.122 56-56S422.878 224 392 224zM392 320c-22.056 0-40-17.944-40-40s17.944-40 40-40 40 17.944 40 40S414.056 320 392 320z"></path></svg>