<svg xmlns="http://www.w3.org/2000/svg" viewBox="0 0 32 32" id="approved-cloud"><g><path fill="#6cf" d="M29.59,20.67a6.92,6.92,0,0,0-4.26-4.27A10,10,0,0,0,6,20v.1A5,5,0,0,0,7,30H23a7,7,0,0,0,7-7A6.72,6.72,0,0,0,29.59,20.67Z"></path><polygon fill="#09f" points="16.09 26.45 12.55 22.91 13.96 21.5 16.09 23.62 21.04 18.67 22.45 20.09 16.09 26.45"></polygon><path d="M29.59,20.67a6.92,6.92,0,0,0-4.26-4.27A10,10,0,0,0,6,20v.1A5,5,0,0,0,7,30H23a7,7,0,0,0,7-7A6.72,6.72,0,0,0,29.59,20.67ZM23,28H7a3,3,0,0,1,0-6H8V20a8,8,0,0,1,15.6-2.48l.17.52.53.14A5,5,0,0,1,28,23,5,5,0,0,1,23,28Z"></path></g></svg>