<svg xmlns="http://www.w3.org/2000/svg" enable-background="new 0 0 64 64" viewBox="0 0 64 64" id="audit"><linearGradient id="a" x1="-3.994" x2="56.658" y1="5.354" y2="65.223" gradientUnits="userSpaceOnUse"><stop offset="0" stop-color="#d7df23"></stop><stop offset=".007" stop-color="#d7df23"></stop><stop offset=".208" stop-color="#d7df23"></stop><stop offset=".506" stop-color="#8dc63f"></stop><stop offset=".765" stop-color="#39b54a"></stop><stop offset="1" stop-color="#009444"></stop></linearGradient><path fill="url(#a)" d="M61,19H46V1c0-0.552-0.447-1-1-1H11c-0.134,0-0.264,0.027-0.385,0.078c-0.122,0.051-0.231,0.124-0.323,0.216l-9.998,9.998c-0.092,0.092-0.165,0.201-0.216,0.323C0.027,10.736,0,10.867,0,11v52c0,0.552,0.447,1,1,1h26c0.553,0,1-0.448,1-1s-0.447-1-1-1H2V12h9c0.553,0,1-0.448,1-1V2h32v17H32c-1.654,0-3,1.346-3,3v13c0,0.552,0.447,1,1,1s1-0.448,1-1v-2h31v28c0,0.551-0.448,1-1,1H32c-0.552,0-1-0.449-1-1V38.5c0-0.552-0.447-1-1-1s-1,0.448-1,1V61c0,1.654,1.346,3,3,3h29c1.654,0,3-1.346,3-3V22C64,20.346,62.654,19,61,19z M3.414,10L10,3.414V10H3.414z M31,31v-9c0-0.551,0.448-1,1-1h29c0.552,0,1,0.449,1,1v9H31z"></path><linearGradient id="b" x1="10.603" x2="71.255" y1="-9.434" y2="50.435" gradientUnits="userSpaceOnUse"><stop offset="0" stop-color="#d7df23"></stop><stop offset=".007" stop-color="#d7df23"></stop><stop offset=".208" stop-color="#d7df23"></stop><stop offset=".506" stop-color="#8dc63f"></stop><stop offset=".765" stop-color="#39b54a"></stop><stop offset="1" stop-color="#009444"></stop></linearGradient><path fill="url(#b)" d="M58,22H35c-1.103,0-2,0.897-2,2v4c0,1.103,0.897,2,2,2h23c1.103,0,2-0.897,2-2v-4C60,22.897,59.103,22,58,22z M35,28v-4h23l0.001,4H35z"></path><linearGradient id="c" x1="-3.578" x2="57.074" y1="4.932" y2="64.802" gradientUnits="userSpaceOnUse"><stop offset="0" stop-color="#d7df23"></stop><stop offset=".007" stop-color="#d7df23"></stop><stop offset=".208" stop-color="#d7df23"></stop><stop offset=".506" stop-color="#8dc63f"></stop><stop offset=".765" stop-color="#39b54a"></stop><stop offset="1" stop-color="#009444"></stop></linearGradient><path fill="url(#c)" d="M33,45c0,1.103,0.897,2,2,2h2c1.103,0,2-0.897,2-2v-2c0-1.103-0.897-2-2-2h-2c-1.103,0-2,0.897-2,2V45z M35,43h2l0.001,2H35V43z"></path><linearGradient id="d" x1="6.785" x2="67.438" y1="-5.567" y2="54.303" gradientUnits="userSpaceOnUse"><stop offset="0" stop-color="#d7df23"></stop><stop offset=".007" stop-color="#d7df23"></stop><stop offset=".208" stop-color="#d7df23"></stop><stop offset=".506" stop-color="#8dc63f"></stop><stop offset=".765" stop-color="#39b54a"></stop><stop offset="1" stop-color="#009444"></stop></linearGradient><path fill="url(#d)" d="M54,45c0,1.103,0.897,2,2,2h2c1.103,0,2-0.897,2-2v-2c0-1.103-0.897-2-2-2h-2c-1.103,0-2,0.897-2,2V45z M56,43h2l0.001,2H56V43z"></path><linearGradient id="e" x1="-.079" x2="60.574" y1="1.387" y2="61.256" gradientUnits="userSpaceOnUse"><stop offset="0" stop-color="#d7df23"></stop><stop offset=".007" stop-color="#d7df23"></stop><stop offset=".208" stop-color="#d7df23"></stop><stop offset=".506" stop-color="#8dc63f"></stop><stop offset=".765" stop-color="#39b54a"></stop><stop offset="1" stop-color="#009444"></stop></linearGradient><path fill="url(#e)" d="M35,40h2c1.103,0,2-0.897,2-2v-2c0-1.103-0.897-2-2-2h-2c-1.103,0-2,0.897-2,2v2C33,39.103,33.897,40,35,40z M35,36h2l0.001,2H35V36z"></path><linearGradient id="f" x1="10.285" x2="70.937" y1="-9.112" y2="50.757" gradientUnits="userSpaceOnUse"><stop offset="0" stop-color="#d7df23"></stop><stop offset=".007" stop-color="#d7df23"></stop><stop offset=".208" stop-color="#d7df23"></stop><stop offset=".506" stop-color="#8dc63f"></stop><stop offset=".765" stop-color="#39b54a"></stop><stop offset="1" stop-color="#009444"></stop></linearGradient><path fill="url(#f)" d="M56,40h2c1.103,0,2-0.897,2-2v-2c0-1.103-0.897-2-2-2h-2c-1.103,0-2,0.897-2,2v2C54,39.103,54.897,40,56,40z M56,36h2l0.001,2H56V36z"></path><linearGradient id="g" x1="-7.078" x2="53.574" y1="8.478" y2="68.347" gradientUnits="userSpaceOnUse"><stop offset="0" stop-color="#d7df23"></stop><stop offset=".007" stop-color="#d7df23"></stop><stop offset=".208" stop-color="#d7df23"></stop><stop offset=".506" stop-color="#8dc63f"></stop><stop offset=".765" stop-color="#39b54a"></stop><stop offset="1" stop-color="#009444"></stop></linearGradient><path fill="url(#g)" d="M33,52c0,1.103,0.897,2,2,2h2c1.103,0,2-0.897,2-2v-2c0-1.103-0.897-2-2-2h-2c-1.103,0-2,0.897-2,2V52z M35,50h2l0.001,2H35V50z"></path><linearGradient id="h" x1="-10.578" x2="50.074" y1="12.023" y2="71.893" gradientUnits="userSpaceOnUse"><stop offset="0" stop-color="#d7df23"></stop><stop offset=".007" stop-color="#d7df23"></stop><stop offset=".208" stop-color="#d7df23"></stop><stop offset=".506" stop-color="#8dc63f"></stop><stop offset=".765" stop-color="#39b54a"></stop><stop offset="1" stop-color="#009444"></stop></linearGradient><path fill="url(#h)" d="M33,59c0,1.103,0.897,2,2,2h2c1.103,0,2-0.897,2-2v-2c0-1.103-0.897-2-2-2h-2c-1.103,0-2,0.897-2,2V59z M35,57h2l0.001,2H35V57z"></path><linearGradient id="i" x1="-.124" x2="60.528" y1="1.433" y2="61.302" gradientUnits="userSpaceOnUse"><stop offset="0" stop-color="#d7df23"></stop><stop offset=".007" stop-color="#d7df23"></stop><stop offset=".208" stop-color="#d7df23"></stop><stop offset=".506" stop-color="#8dc63f"></stop><stop offset=".765" stop-color="#39b54a"></stop><stop offset="1" stop-color="#009444"></stop></linearGradient><path fill="url(#i)" d="M40,45c0,1.103,0.897,2,2,2h2c1.103,0,2-0.897,2-2v-2c0-1.103-0.897-2-2-2h-2c-1.103,0-2,0.897-2,2V45z M42,43h2l0.001,2H42V43z"></path><linearGradient id="j" x1="3.376" x2="64.028" y1="-2.113" y2="57.757" gradientUnits="userSpaceOnUse"><stop offset="0" stop-color="#d7df23"></stop><stop offset=".007" stop-color="#d7df23"></stop><stop offset=".208" stop-color="#d7df23"></stop><stop offset=".506" stop-color="#8dc63f"></stop><stop offset=".765" stop-color="#39b54a"></stop><stop offset="1" stop-color="#009444"></stop></linearGradient><path fill="url(#j)" d="M42,40h2c1.103,0,2-0.897,2-2v-2c0-1.103-0.897-2-2-2h-2c-1.103,0-2,0.897-2,2v2C40,39.103,40.897,40,42,40z M42,36h2l0.001,2H42V36z"></path><linearGradient id="k" x1="-3.623" x2="57.029" y1="4.978" y2="64.848" gradientUnits="userSpaceOnUse"><stop offset="0" stop-color="#d7df23"></stop><stop offset=".007" stop-color="#d7df23"></stop><stop offset=".208" stop-color="#d7df23"></stop><stop offset=".506" stop-color="#8dc63f"></stop><stop offset=".765" stop-color="#39b54a"></stop><stop offset="1" stop-color="#009444"></stop></linearGradient><path fill="url(#k)" d="M40,52c0,1.103,0.897,2,2,2h2c1.103,0,2-0.897,2-2v-2c0-1.103-0.897-2-2-2h-2c-1.103,0-2,0.897-2,2V52z M42,50h2l0.001,2H42V50z"></path><linearGradient id="l" x1="-7.123" x2="53.529" y1="8.524" y2="68.393" gradientUnits="userSpaceOnUse"><stop offset="0" stop-color="#d7df23"></stop><stop offset=".007" stop-color="#d7df23"></stop><stop offset=".208" stop-color="#d7df23"></stop><stop offset=".506" stop-color="#8dc63f"></stop><stop offset=".765" stop-color="#39b54a"></stop><stop offset="1" stop-color="#009444"></stop></linearGradient><path fill="url(#l)" d="M40,59c0,1.103,0.897,2,2,2h2c1.103,0,2-0.897,2-2v-2c0-1.103-0.897-2-2-2h-2c-1.103,0-2,0.897-2,2V59z M42,57h2l0.001,2H42V57z"></path><linearGradient id="m" x1="3.331" x2="63.983" y1="-2.067" y2="57.803" gradientUnits="userSpaceOnUse"><stop offset="0" stop-color="#d7df23"></stop><stop offset=".007" stop-color="#d7df23"></stop><stop offset=".208" stop-color="#d7df23"></stop><stop offset=".506" stop-color="#8dc63f"></stop><stop offset=".765" stop-color="#39b54a"></stop><stop offset="1" stop-color="#009444"></stop></linearGradient><path fill="url(#m)" d="M47,45c0,1.103,0.897,2,2,2h2c1.103,0,2-0.897,2-2v-2c0-1.103-0.897-2-2-2h-2c-1.103,0-2,0.897-2,2V45z M49,43h2l0.001,2H49V43z"></path><linearGradient id="n" x1="6.83" x2="67.483" y1="-5.612" y2="54.257" gradientUnits="userSpaceOnUse"><stop offset="0" stop-color="#d7df23"></stop><stop offset=".007" stop-color="#d7df23"></stop><stop offset=".208" stop-color="#d7df23"></stop><stop offset=".506" stop-color="#8dc63f"></stop><stop offset=".765" stop-color="#39b54a"></stop><stop offset="1" stop-color="#009444"></stop></linearGradient><path fill="url(#n)" d="M49,40h2c1.103,0,2-0.897,2-2v-2c0-1.103-0.897-2-2-2h-2c-1.103,0-2,0.897-2,2v2C47,39.103,47.897,40,49,40z M49,36h2l0.001,2H49V36z"></path><linearGradient id="o" x1="-.169" x2="60.483" y1="1.478" y2="61.348" gradientUnits="userSpaceOnUse"><stop offset="0" stop-color="#d7df23"></stop><stop offset=".007" stop-color="#d7df23"></stop><stop offset=".208" stop-color="#d7df23"></stop><stop offset=".506" stop-color="#8dc63f"></stop><stop offset=".765" stop-color="#39b54a"></stop><stop offset="1" stop-color="#009444"></stop></linearGradient><path fill="url(#o)" d="M47,52c0,1.103,0.897,2,2,2h2c1.103,0,2-0.897,2-2v-2c0-1.103-0.897-2-2-2h-2c-1.103,0-2,0.897-2,2V52z M49,50h2l0.001,2H49V50z"></path><linearGradient id="p" x1="-3.669" x2="56.983" y1="5.024" y2="64.893" gradientUnits="userSpaceOnUse"><stop offset="0" stop-color="#d7df23"></stop><stop offset=".007" stop-color="#d7df23"></stop><stop offset=".208" stop-color="#d7df23"></stop><stop offset=".506" stop-color="#8dc63f"></stop><stop offset=".765" stop-color="#39b54a"></stop><stop offset="1" stop-color="#009444"></stop></linearGradient><path fill="url(#p)" d="M47,59c0,1.103,0.897,2,2,2h2c1.103,0,2-0.897,2-2v-2c0-1.103-0.897-2-2-2h-2c-1.103,0-2,0.897-2,2V59z M49,57h2l0.001,2H49V57z"></path><linearGradient id="q" x1="1.536" x2="62.188" y1="-.249" y2="59.621" gradientUnits="userSpaceOnUse"><stop offset="0" stop-color="#d7df23"></stop><stop offset=".007" stop-color="#d7df23"></stop><stop offset=".208" stop-color="#d7df23"></stop><stop offset=".506" stop-color="#8dc63f"></stop><stop offset=".765" stop-color="#39b54a"></stop><stop offset="1" stop-color="#009444"></stop></linearGradient><path fill="url(#q)" d="M54,59c0,1.103,0.897,2,2,2h2c1.103,0,2-0.897,2-2v-9c0-1.103-0.897-2-2-2h-2c-1.103,0-2,0.897-2,2V59z M56,50h2l0.001,9H56V50z"></path><linearGradient id="r" x1="-20.646" x2="40.006" y1="22.223" y2="82.093" gradientUnits="userSpaceOnUse"><stop offset="0" stop-color="#d7df23"></stop><stop offset=".007" stop-color="#d7df23"></stop><stop offset=".208" stop-color="#d7df23"></stop><stop offset=".506" stop-color="#8dc63f"></stop><stop offset=".765" stop-color="#39b54a"></stop><stop offset="1" stop-color="#009444"></stop></linearGradient><path fill="url(#r)" d="M6,41c-0.553,0-1,0.448-1,1v17c0,0.552,0.447,1,1,1h4c0.553,0,1-0.448,1-1V42c0-0.552-0.447-1-1-1H6z M9,58H7V43h2V58z"></path><linearGradient id="s" x1="-13.948" x2="46.704" y1="15.438" y2="75.308" gradientUnits="userSpaceOnUse"><stop offset="0" stop-color="#d7df23"></stop><stop offset=".007" stop-color="#d7df23"></stop><stop offset=".208" stop-color="#d7df23"></stop><stop offset=".506" stop-color="#8dc63f"></stop><stop offset=".765" stop-color="#39b54a"></stop><stop offset="1" stop-color="#009444"></stop></linearGradient><path fill="url(#s)" d="M14,30c-0.553,0-1,0.448-1,1v28c0,0.552,0.447,1,1,1h4c0.553,0,1-0.448,1-1V31c0-0.552-0.447-1-1-1H14z M17,58h-2V32h2V58z"></path><linearGradient id="t" x1="-8.501" x2="52.152" y1="9.919" y2="69.788" gradientUnits="userSpaceOnUse"><stop offset="0" stop-color="#d7df23"></stop><stop offset=".007" stop-color="#d7df23"></stop><stop offset=".208" stop-color="#d7df23"></stop><stop offset=".506" stop-color="#8dc63f"></stop><stop offset=".765" stop-color="#39b54a"></stop><stop offset="1" stop-color="#009444"></stop></linearGradient><path fill="url(#t)" d="M22,24c-0.553,0-1,0.448-1,1v34c0,0.552,0.447,1,1,1h4c0.553,0,1-0.448,1-1V25c0-0.552-0.447-1-1-1H22z M25,58h-2V26h2V58z"></path><linearGradient id="u" x1="4.505" x2="65.157" y1="-3.256" y2="56.613" gradientUnits="userSpaceOnUse"><stop offset="0" stop-color="#d7df23"></stop><stop offset=".007" stop-color="#d7df23"></stop><stop offset=".208" stop-color="#d7df23"></stop><stop offset=".506" stop-color="#8dc63f"></stop><stop offset=".765" stop-color="#39b54a"></stop><stop offset="1" stop-color="#009444"></stop></linearGradient><path fill="url(#u)" d="M31,15c0-0.552-0.447-1-1-1H16c-0.553,0-1,0.448-1,1s0.447,1,1,1h14C30.553,16,31,15.552,31,15z"></path></svg>