<svg xmlns="http://www.w3.org/2000/svg" enable-background="new 0 0 64 64" viewBox="0 0 64 64" id="business-performance"><path fill="#bfdda0" d="M51.44,25.15c-1.21,1.05-2.79,1.69-4.51,1.69c-3.81,0-6.9-3.1-6.9-6.9c0-3.63,2.84-6.62,6.41-6.87v6.87
			c0,0.13,0.04,0.26,0.14,0.35L51.44,25.15z"></path><path fill="#4e5292" d="M60.86,3.73H3.14C1.41,3.73,0,5.14,0,6.87v41.48c0,1.73,1.41,3.14,3.14,3.14h20.34l-1.01,4.38H20.8
			c-1.52,0-3.86,1.67-3.86,3.9c0,0.27,0.22,0.49,0.49,0.49h29.15c0.27,0,0.49-0.23,0.49-0.49c0-2.23-2.34-3.9-3.86-3.9h-1.68
			l-1.01-4.38h20.34c1.73,0,3.14-1.41,3.14-3.14V6.87C64,5.14,62.59,3.73,60.86,3.73z M43.21,56.86c0.96,0,2.49,1.08,2.82,2.42
			H17.98c0.31-1.34,1.85-2.42,2.82-2.42H43.21z M40.53,55.88H23.48l1.01-4.38h15.02L40.53,55.88z M63.02,48.35
			c0,1.18-0.97,2.16-2.16,2.16H3.14c-1.18,0-2.16-0.97-2.16-2.16V6.87c0-1.19,0.97-2.16,2.16-2.16h57.72c1.19,0,2.16,0.96,2.16,2.16
			V48.35z"></path><path fill="#98d3ba" d="M46.03,59.28H17.98c0.31-1.34,1.85-2.42,2.82-2.42h22.42C44.18,56.86,45.71,57.94,46.03,59.28z"></path><polygon fill="#89c3a8" points="40.53 55.88 23.48 55.88 24.5 51.5 39.51 51.5"></polygon><path fill="#b9e0ce" d="M60.86,4.72H3.14c-1.18,0-2.16,0.96-2.16,2.16v41.48c0,1.18,0.97,2.16,2.16,2.16h57.72
			c1.19,0,2.16-0.97,2.16-2.16V6.87C63.02,5.68,62.05,4.72,60.86,4.72z M60.17,44.07c0,0.28-0.23,0.49-0.49,0.49H4.33
			c-0.28,0-0.49-0.22-0.49-0.49V8.39c0-0.27,0.22-0.49,0.49-0.49h55.35c0.27,0,0.49,0.23,0.49,0.49V44.07z"></path><path fill="#98d3ba" d="M63.02,35.7v12.65c0,0.14-0.01,0.27-0.04,0.39c-0.13,0.03-0.26,0.04-0.39,0.04H4.86
			c-1.18,0-2.16-0.97-2.16-2.16V5.15c0-0.14,0.01-0.27,0.04-0.39C2.88,4.73,3,4.72,3.14,4.72h12.65V7.9H4.33
			c-0.28,0-0.49,0.23-0.49,0.49v35.68c0,0.28,0.22,0.49,0.49,0.49h55.35c0.27,0,0.49-0.22,0.49-0.49V35.7H63.02z"></path><path fill="#89c3a8" d="M62.98,48.75c-0.19,0.99-1.06,1.76-2.12,1.76H3.14c-1.18,0-2.16-0.97-2.16-2.16V6.87
			c0-1.05,0.77-1.93,1.76-2.12C2.72,4.88,2.71,5.01,2.71,5.15v41.48c0,1.18,0.97,2.16,2.16,2.16h57.72
			C62.72,48.79,62.85,48.78,62.98,48.75z"></path><path fill="#4e5292" d="M59.68,7.9H4.33c-0.28,0-0.49,0.23-0.49,0.49v35.68c0,0.28,0.22,0.49,0.49,0.49h55.35
			c0.27,0,0.49-0.22,0.49-0.49V8.39C60.17,8.12,59.94,7.9,59.68,7.9z M59.19,43.58H4.82V8.88h54.36V43.58z"></path><path fill="#bbe0f6" d="M4.82,8.88v34.7h54.36V8.88H4.82z M10.39,40.16c-0.27,0-0.49-0.22-0.49-0.49V17.34
			c0-0.28,0.23-0.49,0.49-0.49c0.28,0,0.49,0.22,0.49,0.49v21.84H36.8c0.28,0,0.49,0.23,0.49,0.49c0,0.27-0.2,0.47-0.45,0.49H10.39z
			 M33.25,23.81l-0.1-0.4l-1.27,1.98l-3.22,5c-0.12,0.18-0.33,0.26-0.53,0.21l-3.69-0.94l-4.45-1.12l-6.57,6.73
			c-0.1,0.1-0.23,0.15-0.35,0.15c-0.12,0-0.25-0.04-0.34-0.14c-0.19-0.19-0.2-0.5-0.01-0.7l6.77-6.94c0.12-0.13,0.31-0.18,0.47-0.13
			l4.11,1.03l2.22,0.56l1.75,0.44l3.45-5.37l0.91-1.4l-0.48,0.08c-0.27,0.04-0.52-0.15-0.56-0.41c-0.04-0.27,0.15-0.52,0.41-0.56
			l0.93-0.14l0.61-0.1c0.2-0.03,0.38,0.06,0.48,0.22c0.05,0.06,0.07,0.14,0.09,0.21l0.34,1.51c0.07,0.27-0.1,0.53-0.36,0.59
			c-0.04,0.01-0.08,0.02-0.11,0.02c-0.09,0-0.19-0.03-0.26-0.08C33.36,24.05,33.28,23.95,33.25,23.81z M52.6,39.86H42.31
			c-0.27,0-0.49-0.22-0.49-0.49c0-0.27,0.23-0.49,0.49-0.49H52.6c0.28,0,0.49,0.23,0.49,0.49C53.09,39.64,52.87,39.86,52.6,39.86z
			 M52.6,36.51h-7.34c-0.27,0-0.49-0.23-0.49-0.49c0-0.28,0.23-0.49,0.49-0.49h7.34c0.28,0,0.49,0.22,0.49,0.49
			C53.09,36.28,52.87,36.51,52.6,36.51z M52.6,33.15h-9.3c-0.27,0-0.49-0.22-0.49-0.49c0-0.28,0.23-0.49,0.49-0.49h9.3
			c0.28,0,0.49,0.22,0.49,0.49C53.09,32.94,52.87,33.15,52.6,33.15z M46.93,27.83c-4.35,0-7.89-3.53-7.89-7.89
			c0-4.34,3.53-7.89,7.89-7.89c4.34,0,7.88,3.54,7.88,7.89C54.8,24.29,51.27,27.83,46.93,27.83z"></path><path fill="#a7d6e7" d="M37.3,39.67c0,0.27-0.2,0.47-0.45,0.49H10.39c-0.27,0-0.49-0.22-0.49-0.49V17.34c0-0.28,0.23-0.49,0.49-0.49
			c0.28,0,0.49,0.22,0.49,0.49v21.84H36.8C37.08,39.18,37.3,39.4,37.3,39.67z"></path><path fill="#4e5292" d="M46.93,12.05c-4.35,0-7.89,3.54-7.89,7.89c0,4.35,3.53,7.89,7.89,7.89c4.34,0,7.88-3.53,7.88-7.89
			C54.8,15.6,51.27,12.05,46.93,12.05z M47.42,13.07c3.41,0.25,6.13,2.97,6.38,6.38h-6.38V13.07z M46.93,26.84
			c-3.81,0-6.9-3.1-6.9-6.9c0-3.63,2.84-6.62,6.41-6.87v6.87c0,0.13,0.04,0.26,0.14,0.35l4.86,4.85
			C50.23,26.2,48.65,26.84,46.93,26.84z M52.13,24.46l-4.02-4.03h5.69C53.69,21.97,53.08,23.35,52.13,24.46z"></path><path fill="#f1b8c7" d="M53.8,20.43c-0.11,1.54-0.72,2.92-1.67,4.03l-4.02-4.03H53.8z"></path><path fill="#a5d179" d="M49.97,23.68l1.26,1.26c-0.96,0.53-2.07,0.83-3.23,0.83c-3.81,0-6.9-3.1-6.9-6.9c0-1.6,0.55-3.08,1.49-4.26
			c0.4-0.32,0.84-0.61,1.3-0.84c-0.45,0.92-0.71,1.94-0.71,3.02C43.18,20.55,46.21,23.63,49.97,23.68z"></path><path fill="#ec9aad" d="M53.11,22.97c-0.26,0.53-0.59,1.03-0.98,1.49l-0.88-0.88C51.91,23.47,52.53,23.27,53.11,22.97z"></path><path fill="#ffdb7c" d="M53.8,19.45h-6.38v-6.38C50.83,13.31,53.55,16.04,53.8,19.45z"></path><path fill="#94c36b" d="M51.44,25.15c-1.21,1.05-2.79,1.69-4.51,1.69c-3.81,0-6.9-3.1-6.9-6.9c0-2.16,1-4.09,2.56-5.34
			c-0.94,1.18-1.49,2.66-1.49,4.26c0,3.8,3.09,6.9,6.9,6.9c1.16,0,2.26-0.3,3.23-0.83L51.44,25.15z"></path><path fill="#4e5292" d="M37.3,39.67c0,0.28-0.22,0.49-0.49,0.49H10.39c-0.27,0-0.49-0.22-0.49-0.49V17.34c0-0.28,0.23-0.49,0.49-0.49
			c0.28,0,0.49,0.22,0.49,0.49v21.84H36.8C37.08,39.18,37.3,39.4,37.3,39.67z"></path><path fill="#4e5292" d="M33.84 24.17c-.04.01-.08.02-.11.02-.23 0-.43-.16-.48-.38l-.1-.4-4.49 6.98c-.12.18-.33.26-.53.21l-8.14-2.06-6.57 6.73c-.1.1-.23.15-.35.15-.12 0-.25-.04-.34-.14-.19-.19-.2-.5-.01-.7l6.77-6.94c.12-.13.31-.18.47-.13l8.07 2.04 4.35-6.76-.48.08c-.27.04-.52-.15-.56-.41-.04-.27.15-.52.41-.56l1.54-.24c.2-.03.38.06.48.22.05.06.07.14.09.21l.34 1.51C34.27 23.85 34.11 24.11 33.84 24.17zM53.09 32.66c0 .28-.22.49-.49.49h-9.3c-.27 0-.49-.22-.49-.49 0-.28.23-.49.49-.49h9.3C52.87 32.17 53.09 32.38 53.09 32.66zM53.09 36.02c0 .27-.22.49-.49.49h-7.34c-.27 0-.49-.23-.49-.49 0-.28.23-.49.49-.49h7.34C52.87 35.52 53.09 35.74 53.09 36.02zM53.09 39.36c0 .28-.22.49-.49.49H42.31c-.27 0-.49-.22-.49-.49 0-.27.23-.49.49-.49H52.6C52.87 38.87 53.09 39.1 53.09 39.36z"></path><g><polygon fill="#a7d6e7" points="13.13 39.18 10.88 39.18 10.88 32.47"></polygon><path fill="#a7d6e7" d="M14.62,43.58h-9.8V14.5L9.9,29.55v10.12c0,0.28,0.23,0.49,0.49,0.49h3.08L14.62,43.58z"></path><polygon fill="#a7d6e7" points="19.48 8.88 26.28 29.11 24.06 28.54 17.45 8.88"></polygon><polygon fill="#a7d6e7" points="29.68 39.18 27.65 39.18 24.44 29.66 26.65 30.22"></polygon><polygon fill="#a7d6e7" points="31.15 43.58 29.12 43.58 27.97 40.16 30 40.16"></polygon><path fill="#a7d6e7" d="M28.35 8.88l4.33 12.87-.93.14c-.27.04-.45.3-.41.56.04.27.3.45.56.41l.48-.08-.91 1.4-5.14-15.3H28.35zM40.02 43.58H38l-1.15-3.42c.26-.02.45-.23.45-.49 0-.27-.22-.49-.49-.49h-.29l-4.64-13.79 1.27-1.98.1.4c.03.14.11.25.23.31L40.02 43.58z"></path></g></svg>