<svg xmlns="http://www.w3.org/2000/svg" viewBox="0 0 128 128" id="car-accident"><path d="M3.56046 63.42931S23.849 67.988 24.00021 67.9892a2.03547 2.03547 0 0 0 1.82817-2.81232C24.9319 63.15775 20.19609 53.06846 14.641 52.011L6.4208 50.03928a2.04068 2.04068 0 0 0-2.42528 1.54194L2.04143 61.07415A2.00077 2.00077 0 0 0 3.56046 63.42931zM7.497 54.4121s6.34029 1.51947 6.37984 1.52631c1.86327.33066 4.43112 3.7413 6.39791 7.15926L6.35536 59.95811zM123.11826 50.29618a1.99513 1.99513 0 0 0-1.53905-.25691L113.359 52.011c-5.55508 1.05742-10.29084 11.1465-11.1874 13.16578a2.0428 2.0428 0 0 0 1.82808 2.81239c.146 0 20.43981-4.55989 20.43981-4.55989a2.00077 2.00077 0 0 0 1.519-2.35516l-1.95409-9.49293A2.00114 2.00114 0 0 0 123.11826 50.29618zm-15.39589 12.802c1.96483-3.41747 4.5322-6.82811 6.40084-7.15975.03955-.00684 6.37984-1.52631 6.37984-1.52631l1.14159 5.546z"></path><path d="M125.99959,101.99886H94.01714a10.08221,10.08221,0,0,0,2.04369-.21637,9.98652,9.98652,0,0,0,7.89411-10.63693l22.47483-4.95295a2.00048,2.00048,0,0,0-.86035-3.90736l-22.74454,5.01247A9.99133,9.99133,0,0,0,84.023,91.4413l-11.4,2.51231a2.0453,2.0453,0,0,1-2.41649-1.5312c-.29693-1.35689-.60962-2.81135-.9038-4.1915l3.18211-.79576a2.00062,2.00062,0,0,0-.96972-3.882l-3.041.76047c-.2362-1.12459-.40765-1.94733-.46582-2.22622-.061-.758.19824-1.56441,1.54979-3.11221,1.31591-1.5058,4.68161-4.36794,12.44035-6.61516a36.83238,36.83238,0,0,0,18.64685-14.02742c.03613-.05421.06982-.10989.10059-.16753,1.4956-2.79523,6.56-10.36134,12.057-12.00146l13.519-2.20766a2.00032,2.00032,0,0,0-.64453-3.94839l-13.63858,2.2272a1.9608,1.9608,0,0,0-.22461.04982C103.8264,44.5553,97.91335,55.00748,97.26931,56.18458A33.36,33.36,0,0,1,80.88612,68.51718c-6.4775,1.87553-11.57024,4.65464-14.34024,7.82547-1.47411,1.68847-2.79783,3.61626-2.50535,6.26594a1.873,1.873,0,0,0,.02978.18755s1.20849,5.81855,2.229,10.482a6.05143,6.05143,0,0,0,5.91939,4.71521c.4082,0,12.393-2.58509,12.393-2.58509a9.97832,9.97832,0,0,0,9.34106,6.59062H34.0472a9.97831,9.97831,0,0,0,9.34112-6.5908s12.00041,2.58918,12.40275,2.58918a6.05449,6.05449,0,0,0,5.90963-4.71911c1.0205-4.66343,2.229-10.482,2.229-10.482a1.873,1.873,0,0,0,.02978-.18755c.29248-2.64968-1.03124-4.57747-2.50584-6.26594-2.76951-3.17082-7.86225-5.94993-14.33975-7.82547A33.1306,33.1306,0,0,1,30.73069,56.18458c-.644-1.17709-6.55709-11.62928-14.54483-13.89995a1.9608,1.9608,0,0,0-.22461-.04982L2.32267,40.00762A2.00032,2.00032,0,0,0,1.67815,43.956l13.519,2.20815c6.60347,1.9654,12.00334,11.90133,12.05754,12.00243.03027.05666.06445.11283.1001.16606A36.83238,36.83238,0,0,0,46.00158,72.36007c7.75874,2.24722,11.12444,5.10936,12.43986,6.61516,1.352,1.5478,1.61132,2.35418,1.55028,3.11221-.05817.27889-.22961,1.10163-.46582,2.22622l-3.041-.76047a2.00062,2.00062,0,0,0-.96972,3.882l3.18211.79576c-.29419,1.38015-.60687,2.83461-.9038,4.1915a2.03843,2.03843,0,0,1-2.38866,1.53706L43.977,91.44105A9.993,9.993,0,0,0,25.17518,87.2976L2.43058,82.28525a2.00048,2.00048,0,0,0-.86035,3.90736l22.47489,4.95282a9.98641,9.98641,0,0,0,7.89405,10.63706,10.08358,10.08358,0,0,0,2.04369.21637H2.00041a2.00057,2.00057,0,0,0,0,4.00114H125.99959a2.00057,2.00057,0,0,0,0-4.00114Zm-37.845-8.77081a5.98483,5.98483,0,0,1,.82033-4.5088A5.9989,5.9989,0,1,1,90.724,97.0224,5.98425,5.98425,0,0,1,88.15457,93.22806ZM32.76339,97.86732a5.95756,5.95756,0,0,1-3.788-2.59444,5.9989,5.9989,0,1,1,8.30069,1.74947A5.95488,5.95488,0,0,1,32.76339,97.86732Z"></path><path d="M33.88936,50.28544l11.02443,7.364a2.02348,2.02348,0,0,0,2.77381-.55247,2.00056,2.00056,0,0,0-.55224-2.77471l-6.48629-4.33277,7.03657-.80492a2.02522,2.02522,0,0,0,1.54442-2.91587L46.92687,41.8724,55.14164,43.639a2.03293,2.03293,0,0,0,2.418-2.05185L57.10747,32.168l6.07806,5.18212A2.02413,2.02413,0,0,0,66.147,36.9379l5.26364-7.89384L73.62,39.51722a2.02233,2.02233,0,0,0,3.19285,1.16L83.47936,35.437,79.79385,47.01642a2.03447,2.03447,0,0,0,1.92869,2.60769l6.17672-.07131-3.42234,3.226a2.00027,2.00027,0,0,0,2.74315,2.912L91.34728,51.8a18.82329,18.82329,0,0,0,3.07182-2.96372c.90072-1.35226.53989-3.34369-1.44225-3.34369l-8.53168.09866,4.81929-15.14049a2.01727,2.01727,0,0,0-3.14157-2.18035L76.87,35.54346,74.34223,23.56353a2.01755,2.01755,0,0,0-3.62108-.697l-6.65328,9.97842-7.88225-6.72015A2.01569,2.01569,0,0,0,52.8907,27.7429l.54882,11.43733-9.84509-2.11729a2.01954,2.01954,0,0,0-2.19194,2.8846l2.93064,5.59339-9.56,1.09357a2.00047,2.00047,0,0,0-.88378,3.65094Z"></path></svg>