<svg xmlns="http://www.w3.org/2000/svg" viewBox="0 0 94.89 63.5" id="car"><g><g><path fill="#4b4768" d="M23.39 28V13.13a8 8 0 0 0-5.24 4.17l-4.76 9.53v22a8 8 0 0 0 7 4.09h64a8 8 0 0 0 8-8V43h-54a15 15 0 0 1-15-15z" opacity=".1"></path><path fill="none" stroke="#ff9494" stroke-linecap="round" stroke-linejoin="round" stroke-width="3" d="M13.92 37.47h14M32.92 37.47h1"></path><path fill="#ff9494" d="M71.5 27H56.92a1 1 0 0 1-1-1v-7a1 1 0 0 1 1-1h7.58a1 1 0 0 1 .71.29l7 7A1 1 0 0 1 71.5 27zM28.61 27h19.3a1 1 0 0 0 1-1v-7a1 1 0 0 0-1-1H32.5a1 1 0 0 0-.87.51l-3.89 7a1 1 0 0 0 .87 1.49z"></path><path fill="none" stroke="#4b4668" stroke-linecap="round" stroke-linejoin="round" stroke-width="3" d="M75 26.54 63.73 15.22a8 8 0 0 0-5.66-2.34H26.33a8 8 0 0 0-7.16 4.42l-4.94 9.89a8 8 0 0 0-.84 3.58v14.11a8 8 0 0 0 8 8h64a8 8 0 0 0 8-8v-8a8 8 0 0 0-8-8H80.7a8 8 0 0 1-5.7-2.34z"></path><circle cx="32.42" cy="53" r="9" fill="#fff" stroke="#4b4668" stroke-linecap="round" stroke-linejoin="round" stroke-width="3"></circle><circle cx="72.42" cy="53" r="9" fill="#fff" stroke="#4b4668" stroke-linecap="round" stroke-linejoin="round" stroke-width="3"></circle><path fill="none" stroke="#4b4668" stroke-linecap="round" stroke-linejoin="round" stroke-width="3" d="M50.92 37.47h4M93.19 40.68h-2.26a3.24 3.24 0 0 1-3.26-3.22 3.24 3.24 0 0 1 3.26-3.22h1.63M50.17 62h35.42M13.81 62h29.38M8.92 62h.81M66.5 29H51.92a1 1 0 0 1-1-1v-7a1 1 0 0 1 1-1h7.58a1 1 0 0 1 .71.29l7 7A1 1 0 0 1 66.5 29zM23.61 29h19.3a1 1 0 0 0 1-1v-7a1 1 0 0 0-1-1H27.5a1 1 0 0 0-.87.51l-3.89 7a1 1 0 0 0 .87 1.49zM7.92 41.5h5M10.92 44h2"></path><g opacity=".2"><path fill="none" stroke="#4b4668" stroke-linecap="round" stroke-linejoin="round" stroke-width="3" d="M4 26.42v5M6.5 28.92h-5"></path></g><g opacity=".2"><path fill="none" stroke="#4b4668" stroke-linecap="round" stroke-linejoin="round" stroke-width="3" d="M83.76 16.92v5M86.26 19.42h-5"></path></g><circle cx="57.42" cy="4" r="2.5" fill="none" stroke="#ff9494" stroke-linecap="round" stroke-linejoin="round" stroke-width="3" opacity=".5"></circle></g></g></svg>