<svg xmlns="http://www.w3.org/2000/svg" viewBox="0 0 32 32" id="clock"><defs><linearGradient id="a" x1="6.105" x2="25.895" y1="6.105" y2="25.895" gradientUnits="userSpaceOnUse"><stop offset="0" stop-color="#fee140"></stop><stop offset=".278" stop-color="#fdb960"></stop><stop offset=".594" stop-color="#fb917f"></stop><stop offset=".846" stop-color="#fa7993"></stop><stop offset="1" stop-color="#fa709a"></stop></linearGradient></defs><path fill="url(#a)" d="M16,2A14,14,0,1,0,30,16,14.0157,14.0157,0,0,0,16,2ZM27.9493,17a11.9385,11.9385,0,0,1-2.7946,6.7407l-1.3764-1.3764-1.4141,1.4141,1.3763,1.3763A11.9389,11.9389,0,0,1,17,27.9493V26H15v1.9493a11.9389,11.9389,0,0,1-6.7406-2.7947l1.3763-1.3763L8.2217,22.3643,6.8453,23.7407A11.9385,11.9385,0,0,1,4.0507,17H6V15H4.0507A11.9385,11.9385,0,0,1,6.8453,8.2593L8.2217,9.6357,9.6357,8.2217,8.2594,6.8453A11.9389,11.9389,0,0,1,15,4.0507V6h2V4.0507a11.9389,11.9389,0,0,1,6.7406,2.7947L22.3643,8.2217l1.4141,1.4141,1.3764-1.3764A11.9385,11.9385,0,0,1,27.9493,15H26v2h1.9493ZM17,15.5859l4.707,4.707L20.293,21.707l-5-5A0.9993,0.9993,0,0,1,15,16V9h2v6.5859Z"></path></svg>