<svg xmlns="http://www.w3.org/2000/svg" viewBox="0 0 128 128" id="cold-temperature"><path fill="#EEEEEC" d="M79.97 94.124c0 9.864-8.006 17.87-17.87 17.87s-17.87-8.006-17.87-17.87a17.837 17.837 0 0 1 8.68-15.317V33.365a9.19 9.19 0 0 1 9.19-9.19 9.145 9.145 0 0 1 6.495 2.696 9.146 9.146 0 0 1 2.696 6.495v45.441a17.839 17.839 0 0 1 8.679 15.317z"></path><path fill="#D8D8D6" d="M67.202 32.391v39.512a2.346 2.346 0 0 0-2.345-2.345h-5.518a2.346 2.346 0 0 0-2.345 2.345V32.391a2.346 2.346 0 0 1 2.345-2.345h5.518a2.346 2.346 0 0 1 2.345 2.345z"></path><path fill="#7FCDF2" d="M104.193 28.632a.516.516 0 0 0-.515-.515h-2.474l2.572-2.387a.516.516 0 0 0-.703-.755l-3.384 3.142h-3.626l-.956-2.299 2.567-2.567 4.616-.17a.514.514 0 0 0 .497-.533.51.51 0 0 0-.536-.497l-3.508.131 1.75-1.75a.508.508 0 0 0 0-.727.508.508 0 0 0-.727 0l-1.75 1.75.131-3.508a.516.516 0 1 0-1.03-.039l-.17 4.616-2.564 2.564-2.301-.951v-3.629l3.142-3.384a.516.516 0 0 0-.755-.703l-2.387 2.572v-2.472a.515.515 0 1 0-1.03 0v2.472l-2.387-2.572a.516.516 0 0 0-.755.703l3.142 3.384v3.626l-2.299.956-2.567-2.567-.17-4.616a.515.515 0 1 0-1.03.039l.131 3.508-1.75-1.75a.508.508 0 0 0-.727 0 .508.508 0 0 0 0 .727l1.75 1.75-3.508-.131a.515.515 0 1 0-.039 1.03l4.616.17 2.564 2.564-.951 2.301h-3.629l-3.384-3.142a.516.516 0 0 0-.703.755l2.572 2.387h-2.472a.515.515 0 1 0 0 1.03h2.472l-2.572 2.387a.516.516 0 0 0 .703.755l3.384-3.142h3.626l.956 2.299-2.567 2.567-4.616.17a.514.514 0 1 0 .039 1.03l3.508-.131-1.75 1.75a.508.508 0 0 0 0 .727.504.504 0 0 0 .363.152.502.502 0 0 0 .363-.152l1.75-1.75-.131 3.508a.516.516 0 0 0 .497.536h.018a.516.516 0 0 0 .515-.497l.17-4.616 2.564-2.564 2.301.951v3.629l-3.142 3.384a.516.516 0 0 0 .755.703l2.387-2.572v2.474c0 .283.232.515.515.515s.515-.232.515-.515v-2.474l2.387 2.572a.518.518 0 0 0 .756-.703l-3.142-3.384v-3.626l2.299-.956 2.567 2.567.17 4.616c.01.278.24.497.515.497h.018a.515.515 0 0 0 .497-.536l-.131-3.508 1.75 1.75a.504.504 0 0 0 .363.152.502.502 0 0 0 .363-.152.508.508 0 0 0 0-.727l-1.75-1.75 3.508.131a.514.514 0 1 0 .039-1.03l-4.616-.17-2.564-2.564.954-2.301h3.626l3.384 3.142a.517.517 0 0 0 .729-.026.516.516 0 0 0-.026-.729l-2.572-2.387h2.474a.517.517 0 0 0 .516-.515zm-15.381-2.026 1.51 1.51h-2.137l.627-1.51zm-.626 2.541h2.137l-1.51 1.51-.627-1.51zm2.863 2.864-1.51-.626 1.51-1.51v2.136zm0-4.621-1.51-1.51 1.51-.626v2.136zm1.031-2.137 1.51.626-1.51 1.51v-2.136zm0 6.758v-2.137l1.51 1.51-1.51.627zm2.237-1.353-1.51-1.51h2.137l-.627 1.51zm-1.51-2.542 1.51-1.51.626 1.51h-2.136zM44.694 59.125a.428.428 0 0 0-.426-.426h-2.046l2.127-1.974a.427.427 0 0 0-.582-.624l-2.799 2.598h-2.999l-.791-1.901 2.123-2.123 3.818-.141a.426.426 0 0 0 .411-.441.422.422 0 0 0-.443-.411l-2.901.109 1.447-1.447a.421.421 0 0 0 0-.601.421.421 0 0 0-.601 0l-1.447 1.447.109-2.901a.426.426 0 0 0-.411-.443.422.422 0 0 0-.441.411l-.142 3.817-2.121 2.121-1.904-.787v-3.001l2.598-2.799a.428.428 0 0 0-.624-.582l-1.974 2.127v-2.044a.426.426 0 1 0-.852 0v2.044l-1.974-2.127a.427.427 0 0 0-.624.582l2.598 2.799v2.999l-1.901.791-2.123-2.123-.141-3.818a.426.426 0 1 0-.852.032l.109 2.901-1.447-1.447a.421.421 0 0 0-.601 0 .421.421 0 0 0 0 .601l1.447 1.447-2.901-.109a.426.426 0 1 0-.032.852l3.818.141 2.121 2.121-.787 1.904h-3.001l-2.799-2.598a.428.428 0 0 0-.582.624l2.127 1.974h-2.044a.426.426 0 1 0 0 .852h2.044l-2.127 1.974a.427.427 0 0 0 .582.624l2.799-2.598h2.999l.791 1.901-2.123 2.123-3.818.141a.426.426 0 1 0 .032.852l2.901-.109-1.447 1.447a.421.421 0 0 0 0 .601.42.42 0 0 0 .602 0l1.447-1.447-.109 2.901a.426.426 0 0 0 .411.443h.015a.427.427 0 0 0 .426-.411l.141-3.818 2.121-2.121 1.904.787v3.001l-2.598 2.799a.428.428 0 0 0 .624.582l1.974-2.127v2.046c0 .234.192.426.426.426a.428.428 0 0 0 .426-.426v-2.046l1.974 2.127a.428.428 0 0 0 .603.021.427.427 0 0 0 .021-.603l-2.598-2.799v-2.999l1.901-.791 2.123 2.123.141 3.818c.009.23.198.411.426.411h.015a.426.426 0 0 0 .411-.443l-.109-2.901 1.447 1.447a.42.42 0 0 0 .602 0 .421.421 0 0 0 0-.601l-1.447-1.447 2.901.109a.425.425 0 1 0 .032-.852l-3.818-.141-2.121-2.121.789-1.904h2.999l2.799 2.598a.428.428 0 0 0 .603-.021.428.428 0 0 0-.021-.603l-2.127-1.974h2.046a.425.425 0 0 0 .425-.425zM31.973 57.45l1.249 1.249h-1.767l.518-1.249zm-.518 2.102h1.767l-1.249 1.249-.518-1.249zm2.368 2.368-1.249-.518 1.249-1.249v1.767zm0-3.822-1.249-1.249 1.249-.518v1.767zm.853-1.767 1.249.518-1.249 1.249v-1.767zm0 5.589v-1.767l1.249 1.249-1.249.518zm1.85-1.119-1.249-1.249h1.767l-.518 1.249zm-1.249-2.102 1.249-1.249.518 1.249h-1.767zm31.928 25.883V70.896a2.348 2.348 0 0 0-2.348-2.348h-5.515a2.348 2.348 0 0 0-2.348 2.348v13.686c-3.924 1.901-6.638 5.91-6.638 10.563 0 6.486 5.258 11.743 11.743 11.743s11.743-5.258 11.743-11.743c.001-4.653-2.712-8.662-6.637-10.563z"></path><path fill="#6EB3CE" d="M73.823 95.148c0 6.478-5.255 11.744-11.744 11.744a10.95 10.95 0 0 1-2.527-.283c5.276-1.152 9.217-5.852 9.217-11.461 0-4.659-2.709-8.661-6.64-10.561V70.893a2.346 2.346 0 0 0-2.345-2.345h5.053a2.346 2.346 0 0 1 2.345 2.345v13.694c3.932 1.9 6.641 5.902 6.641 10.561z"></path><path fill="#7FCDF2" d="M83.1 62.484h-9.096a1.01 1.01 0 1 1 0-2.022H83.1a1.01 1.01 0 1 1 0 2.022zm0 10.107h-9.096a1.01 1.01 0 1 1 0-2.022H83.1a1.01 1.01 0 1 1 0 2.022zm0-20.213h-9.096a1.01 1.01 0 1 1 0-2.022H83.1a1.01 1.01 0 1 1 0 2.022zm-5.054 5.053h-4.043a1.01 1.01 0 1 1 0-2.022h4.043a1.01 1.01 0 1 1 0 2.022zm0 10.106h-4.043a1.01 1.01 0 1 1 0-2.022h4.043a1.01 1.01 0 1 1 0 2.022z"></path></svg>