<svg xmlns="http://www.w3.org/2000/svg" enable-background="new 0 0 64 64" viewBox="0 0 64 64" id="communication"><path fill="#959595" d="M38,56V40c0-1.657,1.343-3,3-3h0h5h0c1.249,0,2.416,0.624,3.109,1.664l3.781,5.672
		C53.614,45.421,54,46.696,54,48l0,0v8"></path><path fill="#b4b4b4" d="M54,48c0-1.304-0.386-2.579-1.109-3.664l-3.781-5.672C48.416,37.624,47.25,37,46,37h-5
		c-0.301,0-0.586,0.058-0.86,0.14C40.058,37.414,40,37.699,40,38v12c0,2.209,1.791,4,4,4h10V48z"></path><path fill="#6ac4e8" d="M52.891,44.336l-3.781-5.672C48.416,37.624,47.25,37,46,37h-5c-1.657,0-3,1.343-3,3v7h15.922
		C53.776,46.051,53.427,45.141,52.891,44.336z"></path><path fill="#8edff8" d="M53.922,47c-0.145-0.949-0.494-1.859-1.031-2.664l-3.781-5.672C48.416,37.624,47.25,37,46,37h-5
		c-0.301,0-0.586,0.058-0.86,0.14C40.058,37.414,40,37.699,40,38v9H53.922z"></path><rect width="48" height="4" x="8" y="56" fill="#959595"></rect><path fill="#b4b4b4" d="M12,58h44v-2H10C10,57.105,10.895,58,12,58z"></path><circle cx="26" cy="59" r="3" fill="#3f4042"></circle><circle cx="46" cy="59" r="3" fill="#3f4042"></circle><polyline fill="#a44b2f" points="34 56 34 33 10 33 10 56"></polyline><path fill="#c7644a" d="M14,46c0,3.866,3.134,7,7,7h13V33H14V46z"></path><rect width="6" height="6" x="14" y="46" fill="#f9cb66"></rect><path fill="#ffd992" d="M15,49c0,1.105,0.895,2,2,2h3v-5h-5V49z"></path><rect width="6" height="6" x="19" y="40" fill="#f9cb66"></rect><path fill="#ffd992" d="M20,43c0,1.105,0.895,2,2,2h3v-5h-5V43z"></path><rect width="6" height="6" x="24" y="46" fill="#f9cb66"></rect><path fill="#ffd992" d="M25,49c0,1.105,0.895,2,2,2h3v-5h-5V49z"></path><circle cx="26" cy="59" r="1" fill="#777"></circle><circle cx="46" cy="59" r="1" fill="#777"></circle><path fill="#5a5b5d" d="M44,46v-9h-2v9h-4v2h16c0-0.683-0.112-1.356-0.316-2H44z"></path><circle cx="32" cy="18" r="16" fill="#3d8738"></circle><path fill="#4fa04b" d="M32,2c-3.909,0-7.487,1.406-10.266,3.734C19.406,8.513,18,12.091,18,16c0,8.837,7.163,16,16,16
		c3.909,0,7.487-1.406,10.266-3.734C46.594,25.487,48,21.909,48,18C48,9.163,40.837,2,32,2z"></path><path fill="#fff" d="M26 17l2.292-2.292c.453-.453.708-1.068.707-1.709v0c0-.64-.255-1.253-.707-1.705l-1.585-1.586C26.254 9.254 25.64 9 25 9h0c-.64 0-1.254.254-1.707.707l0 0C21.825 11.175 21 13.167 21 15.243v0c0 2.405.956 4.712 2.657 6.413l4.687 4.687C30.044 28.044 32.352 29 34.757 29h0c2.076 0 4.067-.825 5.536-2.293v0C40.746 26.254 41 25.64 41 25v0c0-.64-.254-1.254-.707-1.707l-1.586-1.586C38.254 21.254 37.64 21 37 21l0 0c-.64 0-1.254.254-1.707.707L33 24 26 17zM37 18h-2c0-1.654-1.346-3-3-3v-2C34.757 13 37 15.243 37 18z"></path><path fill="#fff" d="M41,18h-2c0-3.859-3.14-7-7-7V9C36.962,9,41,13.037,41,18z"></path><path fill="#fff" d="M45,18h-2c0-6.065-4.935-11-11-11V5C39.168,5,45,10.832,45,18z"></path><path d="M56,55h-1v-7c0-1.506-0.442-2.965-1.277-4.219l-3.781-5.672C49.062,36.789,47.588,36,46,36h-5c-2.206,0-4,1.794-4,4v15h-2
		V34.719c7.946-1.423,14-8.37,14-16.719c0-9.374-7.626-17-17-17S15,8.626,15,18c0,5.803,2.927,10.931,7.378,14H10
		c-0.552,0-1,0.447-1,1v22H8c-0.552,0-1,0.447-1,1v4c0,0.553,0.448,1,1,1h14.556c0.694,1.19,1.97,2,3.444,2s2.75-0.81,3.444-2
		h13.113c0.694,1.19,1.97,2,3.444,2s2.75-0.81,3.444-2H56c0.552,0,1-0.447,1-1v-4C57,55.447,56.552,55,56,55z M48.277,39.219
		l3.781,5.672c0.232,0.349,0.409,0.724,0.557,1.109H44v-8h2C46.917,38,47.769,38.455,48.277,39.219z M41,38h1v8h-3v-6
		C39,38.897,39.897,38,41,38z M39,48h14v7H39V48z M17,18c0-8.271,6.729-15,15-15s15,6.729,15,15s-6.729,15-15,15S17,26.271,17,18z
		 M11,34h15.311c1.782,0.636,3.692,1,5.689,1c0.338,0,0.667-0.031,1-0.051V55H11V34z M9,59v-2h13.556C22.212,57.591,22,58.268,22,59
		H9z M26,61c-1.103,0-2-0.897-2-2s0.897-2,2-2s2,0.897,2,2S27.103,61,26,61z M30,59c0-0.732-0.212-1.409-0.556-2h13.113
		C42.212,57.591,42,58.268,42,59H30z M46,61c-1.103,0-2-0.897-2-2s0.897-2,2-2s2,0.897,2,2S47.103,61,46,61z M55,59h-5
		c0-0.732-0.212-1.409-0.556-2H55V59z"></path><path d="M31 52v-6c0-.553-.448-1-1-1h-4v-5c0-.553-.448-1-1-1h-6c-.552 0-1 .447-1 1v5h-4c-.552 0-1 .447-1 1v6c0 .553.448 1 1 1h6c.552 0 1-.447 1-1v-5h2v5c0 .553.448 1 1 1h6C30.552 53 31 52.553 31 52zM20 41h4v4h-4V41zM19 51h-4v-4h4V51zM29 51h-4v-4h4V51zM41 27.414c.645-.646 1-1.503 1-2.414s-.355-1.769-1-2.414L39.415 21c-1.289-1.289-3.541-1.289-4.829 0L33 22.586 27.414 17l1.585-1.585c.636-.636 1-1.517 1-2.417 0-.911-.355-1.768-.999-2.411L27.414 9C26.778 8.364 25.898 8 25 8c-.913 0-1.77.355-2.414 1C20.942 10.643 20 12.919 20 15.243c0 2.689 1.048 5.218 2.95 7.12l4.687 4.687c1.902 1.902 4.431 2.95 7.121 2.95C37.115 30 39.332 29.082 41 27.414zM24.363 20.949C22.839 19.425 22 17.398 22 15.243c0-1.798.729-3.558 2.001-4.829C24.267 10.146 24.622 10 25 10c.372 0 .737.151 1 .414l1.586 1.587c.267.267.413.621.414.999 0 .372-.151.737-.414 1.001l-2.292 2.292c-.391.391-.391 1.023 0 1.414l7 7c.391.391 1.023.391 1.414 0L36 22.414c.533-.535 1.465-.535 2 0L39.585 24C39.853 24.268 40 24.622 40 25s-.147.732-.414 1c-1.29 1.29-3.005 2-4.829 2-2.156 0-4.182-.84-5.707-2.364L24.363 20.949z"></path><path d="M35,18h2c0-2.757-2.243-5-5-5v2C33.654,15,35,16.346,35,18z"></path><path d="M39,18h2c0-4.963-4.038-9-9-9v2C35.86,11,39,14.141,39,18z"></path><path d="M43,18h2c0-7.168-5.832-13-13-13v2C38.065,7,43,11.935,43,18z"></path></svg>