<svg xmlns="http://www.w3.org/2000/svg" xmlns:xlink="http://www.w3.org/1999/xlink" width="42" height="42" id="computer"><defs><linearGradient id="b" x1="949.87" x2="974.39" y1="518.014" y2="544.657" gradientTransform="translate(-1272.559 316.47) scale(1.34562)" gradientUnits="userSpaceOnUse" xlink:href="#a"></linearGradient><linearGradient id="a"><stop offset="0" stop-color="#24f7bc"></stop><stop offset="1" stop-color="#24c4fc"></stop></linearGradient></defs><g transform="translate(0 -1010.362)"><rect width="42" height="42" y="1010.362" fill="url(#b)" rx="8.876" ry="8.876"></rect><path style="line-height:normal;text-indent:0;text-align:start;text-decoration-line:none;text-decoration-style:solid;text-decoration-color:#000;text-transform:none;block-progression:tb;isolation:auto;mix-blend-mode:normal" fill="#fff" d="M14 1019.362v2h1v-2h-1zm2 0v1h2v-1h-2zm3 0v1h2v-1h-2zm3 0v1h2v-1h-2zm3 0v1h2v-1h-2zm3 0v1h2v-1h-2zm3 0v1h2v-1h-2zm1 2v2h1v-2h-1zm-18 1v2h1v-2h-1zm18 2v2h1v-2h-1zm-18 1v2h1v-2h-1zm18 2v.826l-.207-.207a.5.5 0 0 0-.36-.15.5.5 0 0 0-.347.857l1.06 1.06a.5.5 0 0 0 .708 0l1.06-1.06a.5.5 0 1 0-.707-.707l-.207.207v-.826h-1zm-18 1v.5h1v-.5h-1zm-6.5 2a.5.5 0 0 0-.5.5v8.5h-.5a.5.5 0 0 0-.5.5v2.996a.5.5 0 0 0 .5.5h17.003a.5.5 0 0 0 .5-.5v-2.996a.5.5 0 0 0-.5-.5H23v-8.5a.5.5 0 0 0-.5-.5h-15zm.5 1h14v8H8v-8zm21.5 0a.5.5 0 0 0-.5.5v11a.5.5 0 0 0 .5.5h6a.5.5 0 0 0 .5-.5v-11a.5.5 0 0 0-.5-.5h-6zm.5 1h5v1h-5v-1zm0 2h5v6h-5v-6zm-4.586.918a.5.5 0 0 0-.385.176l-.912 1.041a.5.5 0 0 0 0 .66l.908 1.035a.5.5 0 0 0 .752-.66l-.18-.205h1.897a.5.5 0 1 0 0-1h-1.898l.185-.21a.5.5 0 0 0-.367-.837zM7 1040.362H12.971a.5.5 0 0 0 .486.639h3.092a.5.5 0 0 0 .488-.639H23.004v1.996H7v-1.996zm23 1h5v1h-5v-1z" color="#000" font-family="sans-serif" font-weight="400" overflow="visible"></path></g></svg>