<svg xmlns="http://www.w3.org/2000/svg" enable-background="new 0 0 64 64" viewBox="0 0 64 64" id="CurrentLocation"><path fill="#4285f4" d="M13.13,16.5c-2.15,0-3.9,1.75-3.9,3.9s1.75,3.9,3.9,3.9s3.9-1.75,3.9-3.9S15.28,16.5,13.13,16.5z M13.13,23.32
		c-1.61,0-2.91-1.31-2.91-2.92c0-1.61,1.3-2.91,2.91-2.91s2.92,1.3,2.92,2.91C16.05,22.01,14.74,23.32,13.13,23.32z" class="color444fa0 svgShape"></path><path fill="#4285f4" d="M57.22,0H15.49c-1.57,0-2.85,1.28-2.85,2.85v8.21c-3.22,0.17-6.03,1.91-7.58,4.78
		c-1.63,3.01-1.49,6.52,0.38,9.39l7.2,11.02v24.9c0,1.57,1.28,2.85,2.85,2.85h41.73c1.57,0,2.85-1.28,2.85-2.85V8.88c0,0,0,0,0-0.01
		c0,0,0,0,0-0.01V2.85C60.07,1.28,58.79,0,57.22,0z M13.13,35.2L6.27,24.69c-1.68-2.56-1.8-5.69-0.35-8.38
		c1.46-2.69,4.15-4.3,7.21-4.3s5.75,1.61,7.21,4.3c1.46,2.69,1.33,5.82-0.35,8.38L13.13,35.2z M59.08,61.15
		c0,1.03-0.83,1.87-1.86,1.87H15.49c-1.03,0-1.87-0.84-1.87-1.87v-7.88h45.46V61.15z M59.08,52.29H13.62V36.25l7.2-11.02
		c1.87-2.87,2.02-6.38,0.39-9.39c-1.56-2.87-4.37-4.62-7.59-4.78v-1.7h45.46V52.29z M59.08,8.38H13.62V2.85
		c0-1.03,0.84-1.86,1.87-1.86h41.73c1.03,0,1.86,0.83,1.86,1.86V8.38z" class="color444fa0 svgShape"></path><path fill="#ea4335" d="M20.34,16.31c-1.46-2.69-4.15-4.3-7.21-4.3s-5.75,1.61-7.21,4.3C4.47,19,4.59,22.13,6.27,24.69l6.86,10.51
		l6.86-10.51C21.67,22.13,21.8,19,20.34,16.31z M13.13,24.3c-2.15,0-3.9-1.75-3.9-3.9s1.75-3.9,3.9-3.9s3.9,1.75,3.9,3.9
		S15.28,24.3,13.13,24.3z" class="colorfa627f svgShape"></path><path fill="#fbbc05" d="M13.62 53.27v7.88c0 1.03.84 1.87 1.87 1.87h41.73c1.03 0 1.86-.84 1.86-1.87v-7.88H13.62zM36.35 61.29c-1.73 0-3.14-1.41-3.14-3.15 0-1.73 1.41-3.14 3.14-3.14 1.74 0 3.15 1.41 3.15 3.14C39.5 59.88 38.09 61.29 36.35 61.29zM57.22.99H15.49c-1.03 0-1.87.83-1.87 1.86v5.53h45.46V2.85C59.08 1.82 58.25.99 57.22.99zM39.91 5.17H32.8c-.28 0-.5-.22-.5-.49s.22-.49.5-.49h7.11c.27 0 .49.22.49.49S40.18 5.17 39.91 5.17z" class="coloref9a29 svgShape"></path><path fill="#4285f4" d="M36.35 55c-1.73 0-3.14 1.41-3.14 3.14 0 1.74 1.41 3.15 3.14 3.15 1.74 0 3.15-1.41 3.15-3.15C39.5 56.41 38.09 55 36.35 55zM36.35 60.31c-1.19 0-2.16-.97-2.16-2.17 0-1.19.97-2.16 2.16-2.16 1.2 0 2.17.97 2.17 2.16C38.52 59.34 37.55 60.31 36.35 60.31zM40.4 4.68c0 .27-.22.49-.49.49H32.8c-.28 0-.5-.22-.5-.49s.22-.49.5-.49h7.11C40.18 4.19 40.4 4.41 40.4 4.68zM52.47 31.51h-2.43c-.26-7.17-6.03-12.94-13.19-13.19v-2.43c0-.27-.22-.49-.49-.49-.27 0-.49.22-.49.49v2.43c-7.17.26-12.94 6.03-13.19 13.19h-2.43c-.27 0-.49.22-.49.49 0 .27.22.49.49.49h2.43c.26 7.17 6.03 12.94 13.19 13.19v2.43c0 .27.22.49.49.49.27 0 .49-.22.49-.49v-2.43c7.17-.26 12.94-6.03 13.19-13.19h2.43c.27 0 .49-.22.49-.49C52.96 31.73 52.74 31.51 52.47 31.51zM36.85 44.7v-2.38c0-.27-.22-.49-.49-.49-.27 0-.49.22-.49.49v2.38c-6.62-.26-11.95-5.59-12.21-12.21h2.38c.27 0 .49-.22.49-.49 0-.27-.22-.49-.49-.49h-2.38c.26-6.62 5.59-11.95 12.21-12.21v2.38c0 .27.22.49.49.49.27 0 .49-.22.49-.49V19.3c6.62.26 11.95 5.59 12.21 12.21h-2.38c-.27 0-.49.22-.49.49 0 .27.22.49.49.49h2.38C48.8 39.12 43.47 44.45 36.85 44.7z" class="color444fa0 svgShape"></path></svg>