<svg xmlns="http://www.w3.org/2000/svg" viewBox="0 0 64 64" id="customer-satisfaction"><path fill="#83ade6" d="M37 52H27a4 4 0 0 0-4 4v6h18v-6a4 4 0 0 0-4-4z"></path><circle cx="32" cy="47" r="5" fill="#83ade6"></circle><circle cx="32" cy="11" r="8" fill="#ffe990"></circle><path fill="#e8d483" d="M34 18a8 8 0 0 1-8-8 7.989 7.989 0 0 1 3.454-6.579C26.286 4.485 24 7.473 24 11a8 8 0 0 0 8 8 7.96 7.96 0 0 0 4.546-1.421A7.977 7.977 0 0 1 34 18z"></path><circle cx="53" cy="17" r="8" fill="#63bc94"></circle><path fill="#55a17e" d="M55 24a8 8 0 0 1-8-8 7.989 7.989 0 0 1 3.454-6.579C47.286 10.485 45 13.473 45 17a8 8 0 0 0 8 8 7.96 7.96 0 0 0 4.546-1.421A7.977 7.977 0 0 1 55 24z"></path><circle cx="11" cy="17" r="8" fill="#ff8088"></circle><path fill="#7499cc" d="M32 52c1.2 0 2.287-.44 3.149-1.145A5.008 5.008 0 0 1 34 51a5 5 0 0 1-5-5c0-1.561.73-2.938 1.851-3.855C28.646 42.666 27 44.636 27 47a5 5 0 0 0 5 5z"></path><path fill="#e6737a" d="M13 24a8 8 0 0 1-8-8 7.989 7.989 0 0 1 3.454-6.579C5.286 10.485 3 13.473 3 17a8 8 0 0 0 8 8 7.96 7.96 0 0 0 4.546-1.421A7.977 7.977 0 0 1 13 24z"></path><path d="M24.323 55.736c0-1.654 1.346-3 3-3h10c1.654 0 3 1.346 3 3v6h2v-6c0-2.757-2.243-5-5-5h-.54a5.97 5.97 0 0 0 1.54-4c0-3.309-2.691-6-6-6s-6 2.691-6 6a5.97 5.97 0 0 0 1.54 4h-.54c-2.757 0-5 2.243-5 5v6h2v-6zm8-13c2.206 0 4 1.794 4 4s-1.794 4-4 4-4-1.794-4-4 1.794-4 4-4z"></path><path d="M26.323 55.736h2v6h-2zM36.323 55.736h2v6h-2zM32.323 19.736c4.962 0 9-4.038 9-9s-4.038-9-9-9-9 4.038-9 9 4.037 9 9 9zm0-16c3.86 0 7 3.14 7 7s-3.14 7-7 7-7-3.14-7-7 3.14-7 7-7z"></path><path d="M29.325 7.736h-.005a.998.998 0 0 0-.998.998v.004c0 .551.447.998.998.998h.004a.998.998 0 0 0 .998-.998v-.004a.997.997 0 0 0-.997-.998zm6 0h-.005a.998.998 0 0 0-.998.998v.004c0 .551.447.998.998.998h.004a.998.998 0 0 0 .998-.998v-.004a.997.997 0 0 0-.997-.998zm-5.005 7h4.004a.998.998 0 0 0 .998-.998v-.004a.998.998 0 0 0-.998-.998H30.32a.998.998 0 0 0-.998.998v.004a.999.999 0 0 0 .998.998zm23.003 11c4.962 0 9-4.038 9-9s-4.038-9-9-9-9 4.038-9 9 4.037 9 9 9zm0-16c3.86 0 7 3.14 7 7s-3.14 7-7 7-7-3.14-7-7 3.14-7 7-7z"></path><path d="M50.325 13.736h-.005a.998.998 0 0 0-.998.998v.004c0 .551.447.998.998.998h.004a.998.998 0 0 0 .998-.998v-.004a.997.997 0 0 0-.997-.998zm6 0h-.005a.998.998 0 0 0-.998.998v.004c0 .551.447.998.998.998h.004a.998.998 0 0 0 .998-.998v-.004a.997.997 0 0 0-.997-.998zm-45.002 12c4.962 0 9-4.038 9-9s-4.038-9-9-9-9 4.038-9 9 4.037 9 9 9zm0-16c3.86 0 7 3.14 7 7s-3.14 7-7 7-7-3.14-7-7 3.14-7 7-7z"></path><path d="M8.325 13.736H8.32a.998.998 0 0 0-.998.998v.004c0 .551.447.998.998.998h.004a.998.998 0 0 0 .998-.998v-.004a.997.997 0 0 0-.997-.998zm6 0h-.005a.998.998 0 0 0-.998.998v.004c0 .551.447.998.998.998h.004a.998.998 0 0 0 .998-.998v-.004a.997.997 0 0 0-.997-.998zm38.998 8a4.007 4.007 0 0 0 3.129-1.508c.422-.529.172-1.325-.466-1.55-.382-.135-.829-.044-1.077.277a2.003 2.003 0 0 1-3.172 0c-.247-.321-.695-.412-1.077-.277-.638.225-.888 1.021-.466 1.55a4.01 4.01 0 0 0 3.129 1.508zM8.66 20.795c.382.135.829.044 1.077-.277a2.003 2.003 0 0 1 3.172 0c.247.321.695.412 1.077.277.638-.225.888-1.021.466-1.55-.745-.934-1.89-1.508-3.129-1.508s-2.384.574-3.129 1.508c-.423.528-.173 1.324.466 1.55zm24.663 9.814a4.008 4.008 0 0 0 3-3.874c0-2.206-1.794-4-4-4s-4 1.794-4 4h2c0-1.103.897-2 2-2s2 .897 2 2-.897 2-2 2a1 1 0 0 0-1 1v4h2v-3.126zm-1 7.127a1 1 0 0 0 0-2 1 1 0 1 0 0 2z"></path></svg>