<svg xmlns="http://www.w3.org/2000/svg" width="32" height="32" fill="none" viewBox="0 0 32 32" id="delivery-route"><path stroke="#622E00" stroke-dasharray="1 2.5" stroke-linecap="round" stroke-width=".75" d="M13.5 9.5C15.5 9.5 17 11 17 13C17 15 15.5 16.5 13.5 16.5H10C8.44 16.5 6.5 17.8333 6.5 20C6.5 22.1667 8.44 23.5 10 23.5H20"></path><path fill="#FF9D2A" fill-rule="evenodd" d="M23 14.5C24.933 14.5 26.5 16.067 26.5 18C26.5 18.7881 26.2449 19.359 25.8 20.1003C24.9663 21.4896 23.6913 23.3203 23.2014 24.0156C23.1026 24.1559 22.8974 24.1559 22.7986 24.0156C22.3087 23.3203 21.0337 21.4896 20.2 20.1003C19.7551 19.359 19.5 18.7881 19.5 18C19.5 16.067 21.067 14.5 23 14.5ZM23 16.6C23.7732 16.6 24.4 17.2268 24.4 18C24.4 18.7732 23.7732 19.4 23 19.4C22.2268 19.4 21.6 18.7732 21.6 18C21.6 17.2268 22.2268 16.6 23 16.6Z" clip-rule="evenodd"></path><path stroke="#E95908" stroke-linecap="round" stroke-width=".5" d="M21.6 18C21.6 18.7732 22.2268 19.4 23 19.4C23.4181 19.4 23.7934 19.2167 24.05 18.9261"></path><path fill="#FF9D2A" d="M6 7.25C6 7.11193 6.11193 7 6.25 7H9.75C9.88807 7 10 7.11193 10 7.25V11H6.25C6.11193 11 6 10.8881 6 10.75V7.25Z"></path><path fill="#D9D9D9" d="M10 8H11.2502C11.357 8 11.452 8.06788 11.4867 8.16894L11.892 9.35142C11.9635 9.56015 12 9.77927 12 9.99991L12 10.75C12 10.8881 11.8881 11 11.75 11H10V8Z"></path><path fill="#fff" d="M10.5 8.75C10.5 8.61193 10.6119 8.5 10.75 8.5H10.8198C10.9274 8.5 11.023 8.56886 11.057 8.67094L11.1842 9.05257C11.2166 9.1497 11.1443 9.25 11.0419 9.25H10.75C10.6119 9.25 10.5 9.13807 10.5 9V8.75Z"></path><path fill="#fff" stroke="#622E00" stroke-width=".5" d="M7.5 11.75C7.08579 11.75 6.75 11.4142 6.75 11 6.75 10.5858 7.08579 10.25 7.5 10.25 7.91421 10.25 8.25 10.5858 8.25 11 8.25 11.4142 7.91421 11.75 7.5 11.75zM10.5 11.75C10.0858 11.75 9.75 11.4142 9.75 11 9.75 10.5858 10.0858 10.25 10.5 10.25 10.9142 10.25 11.25 10.5858 11.25 11 11.25 11.4142 10.9142 11.75 10.5 11.75z"></path></svg>