<svg xmlns="http://www.w3.org/2000/svg" id="direction-arrow" x="0" y="0" version="1.1" viewBox="0 0 52 52" xml:space="preserve"><path d="M49.706 19.207 42.14 11.64a.997.997 0 0 0-1.415 0l-7.565 7.566a1 1 0 1 0 1.414 1.414l5.858-5.86v24.894a1 1 0 0 0 2 0V14.762l5.859 5.859a.997.997 0 0 0 1.414 0 1 1 0 0 0 0-1.414z"></path><path fill="#fc0000" d="m18.834 32.795-7.56 7.57c-.09.09-.2.16-.33.21-.12.05-.25.08-.38.08s-.26-.03-.38-.08-.23-.12-.33-.21l-7.56-7.57a.996.996 0 1 1 1.41-1.41l5.86 5.86v-24.9c0-.55.45-1 1-1s1 .45 1 1v24.9l5.86-5.86a.996.996 0 1 1 1.41 1.41z"></path></svg>