<svg xmlns="http://www.w3.org/2000/svg" viewBox="0 0 128 128" id="emergency-call"><path fill="#ecc6c3" d="M86.2 6C66.5 6 50.4 22 50.4 41.8c0 7.4 2.2 14.2 6 19.9l-6 17.9 21-5.2c4.5 2.1 9.5 3.2 14.8 3.2 19.8 0 35.8-16 35.8-35.8S106 6 86.2 6z"></path><circle cx="86" cy="42" r="27" fill="#fff"></circle><path fill="#2652e4" d="M67.7 96.7c-.3.7-.7 1.4-1 2.1-.8 1.8-1.5 1.5-3.7 1.5-9.9.1-35.1-25-34.8-34.8.1-2.1-.3-2.8 1.5-3.7 1-.5 2-.9 3-1.4 1.3-.7-6.1-35.9-7.5-35.8-9.8.3-20 7.8-20 27.6 0 27.2 38.1 71.1 71.1 71.1 18.7 0 26.4-9.1 27.5-18.3.3-1.9-35.3-9.9-36.1-8.3z"></path><path fill="#bde5ec" d="M103.4 104.8c.2 0 .3.1.5.2.2-2 .1-3.9-.2-5.8-.1-.8-1.2-1.6-2-1.8-9.6-2.3-19.3-4.5-29-6.6-.7-.1-1.9.5-2.3 1.1-.9 1.5-1.8 3.1-2.6 4.8 11.8 2.6 23.7 5.3 35.6 8.1zM32.8 60.5l3.9-2.1c.6-.4 1.3-1.6 1.1-2.3a1512 1512 0 0 0-6.6-29c-.2-.8-1-1.9-1.8-2-1.5-.3-3.1-.4-4.7-.3 2.8 11.8 5.5 23.7 8.1 35.7z"></path><path fill="none" stroke="#e44450" stroke-miterlimit="10" stroke-width="8" d="M72 42h28M86 56V28"></path><path fill="none" d="M0 0h128v128H0z"></path></svg>