<svg xmlns="http://www.w3.org/2000/svg" viewBox="0 0 32 32" id="fuel-location"><defs><linearGradient id="a" x1="102.28" x2="103.97" y1="85.88" y2="105.48" gradientTransform="rotate(4.93 938.98 -952.934)" gradientUnits="userSpaceOnUse"><stop offset="0" stop-color="#fff" stop-opacity=".25"></stop><stop offset="1" stop-color="#f86c66"></stop></linearGradient></defs><path fill="#ff9d23" d="M9.23 1.24A.32.32 0 0 1 9 1.16a.31.31 0 0 1 0-.42l.68-.65a.28.28 0 0 1 .41 0l.59.58a.3.3 0 0 1 0 .41.28.28 0 0 1-.41 0L9.89.71l-.45.45a.34.34 0 0 1-.21.08Z"></path><path fill="#0000db" d="M28.88 25.14a.3.3 0 0 1-.21-.09.3.3 0 0 1 0-.41l.66-.66a.31.31 0 0 1 .42 0l.58.59a.28.28 0 0 1 0 .41.3.3 0 0 1-.41 0l-.38-.38-.45.45a.29.29 0 0 1-.21.09Z"></path><path fill="#9495fa" d="M1.28 17.88a.29.29 0 0 1-.21-.09.28.28 0 0 1 0-.41L2 16.5a.29.29 0 0 1 .41 0 .28.28 0 0 1 0 .41l-.88.88a.27.27 0 0 1-.25.09Z"></path><path fill="#ff4b4d" d="M27.76 3.69a.34.34 0 0 1-.21-.08.31.31 0 0 1 0-.42l1-1a.29.29 0 0 1 .41.41l-1 1a.32.32 0 0 1-.2.09Z"></path><path fill="#0000db" d="M5.35 29.65a.32.32 0 0 1-.21-.08.29.29 0 0 1 0-.42l1-1a.31.31 0 0 1 .42 0 .3.3 0 0 1 0 .41l-1 1a.32.32 0 0 1-.21.09Z"></path><path fill="#ff9d23" d="M20.86 32a.27.27 0 0 1-.2-.09.28.28 0 0 1 0-.41l1-1a.29.29 0 0 1 .41.41l-1 1a.29.29 0 0 1-.21.09Z"></path><path fill="url(#a)" d="M13 11a8.81 8.81 0 0 1 7.68 0 4.89 4.89 0 0 1 2.15 1.87c.95 1.66.38 3.82 1.15 5.57A9.8 9.8 0 0 0 26 21a4.89 4.89 0 0 1 1.58 2.84 3.6 3.6 0 0 1-1.07 2.68A8 8 0 0 1 24 28.17a19.2 19.2 0 0 1-14.42.45 8.42 8.42 0 0 1-4.22-3 4.11 4.11 0 0 1 .07-4.88c.82-.89 1.94-1.34 2.54-2.46A14 14 0 0 0 8.63 16 8.7 8.7 0 0 1 13 11Z"></path><path fill="#fed3be" stroke="#0000db" stroke-linecap="round" stroke-linejoin="round" stroke-width=".66" d="M9.85 22.89V2.7a.53.53 0 0 1 .53-.53h12.41a.53.53 0 0 1 .53.53v20.19Z"></path><path fill="#f86c66" stroke="#0000db" stroke-linecap="round" stroke-linejoin="round" stroke-width=".66" d="M19.3 16c0 1-1.25 3-2.05 4.24h0c-.37.55-.63.91-.63.91s-.29-.38-.67-.95c-.83-1.2-2.08-3.2-2.08-4.2a2.72 2.72 0 0 1 5.43 0Z"></path><path fill="#fff" stroke="#0000db" stroke-linecap="round" stroke-linejoin="round" stroke-width=".66" d="M17.84 16a1.26 1.26 0 1 1-1.25-1.25A1.26 1.26 0 0 1 17.84 16Z"></path><path fill="#9495fa" stroke="#0000db" stroke-linecap="round" stroke-linejoin="round" stroke-width=".66" d="M8.68 23.41a.52.52 0 0 1 .52-.52H24a.52.52 0 0 1 .52.52v1.23a.52.52 0 0 1-.52.53H9.2a.52.52 0 0 1-.52-.53Z"></path><rect width="9.03" height="6.31" x="12.07" y="4.28" fill="#fff" stroke="#0000db" stroke-linecap="round" stroke-linejoin="round" stroke-width=".66" rx=".26"></rect><circle cx="16.59" cy="8.32" r=".73" fill="#ff9d23" stroke="#0000db" stroke-linecap="round" stroke-linejoin="round" stroke-width=".66"></circle><path fill="none" stroke="#0000db" stroke-linecap="round" stroke-linejoin="round" stroke-width=".66" d="m15.98 7.9-1.73-1.21M23.32 19.12h2.61a1 1 0 0 1 .95.95v.81a1.76 1.76 0 0 0 1.76 1.76h0a1.76 1.76 0 0 0 1.76-1.76V10.61"></path><path fill="#9495fa" stroke="#0000db" stroke-linecap="round" stroke-linejoin="round" stroke-width=".66" d="m30.83 8.73.4 1.51-1.26.22-.18-.61-.49-1.69-.89.21-1.09.24V7.43l1.22-.25-.44-.93 1.18-.74 1.65 1.79.42 1.29-.52.14z"></path><path fill="none" stroke="#0000db" stroke-linecap="round" stroke-linejoin="round" stroke-width=".66" d="m29.79 9.85-1.01.14-.51-.76.14-.86.89-.21.49 1.69zM28.7 5.87a5 5 0 0 0-3.53-1.4"></path></svg>