<svg xmlns="http://www.w3.org/2000/svg" viewBox="0 0 512 512" id="hammer"><path fill="#7738c8" d="M124.62 154.41a15.1 15.1 0 000 21.32l.17.18a15.12 15.12 0 0021.36 0L276.86 45.24a15.1 15.1 0 00-21.32-21.4C207.37 71.66 153.91 124.9 124.62 154.41zM256.16 285.87L386.83 155.2a15.1 15.1 0 00-21.32-21.4c-48.17 47.83-101.63 101.06-130.93 130.58a15.11 15.11 0 000 21.32l.18.17A15.1 15.1 0 00256.16 285.87zM167 175.63l67.55 67.54c30.23-30.37 74.9-74.82 109.76-109.44L276.75 66.19C236.9 105.78 195 147.54 167 175.63zM124.56 133.21c30.24-30.38 74.91-74.83 109.76-109.44L218.6 8a27.53 27.53 0 00-38.89 0L109 78.75a27.53 27.53 0 000 38.89zM276.58 285.23l16.26 16.26a27.53 27.53 0 0038.89 0l70.71-70.71a27.52 27.52 0 000-38.89L386.35 175.8C346.5 215.38 304.57 257.14 276.58 285.23z"></path><path fill="#011839" d="M200.19 227.26l-56.57 56.57-14.14-14.15L186 213.12l-10.6-10.61-56.57 56.57a7.5 7.5 0 00-10.61 0L2.2 365.14a7.5 7.5 0 000 10.61l35.35 35.36a7.52 7.52 0 0010.61 0L154.22 305a7.5 7.5 0 000-10.61l56.57-56.57zM42.86 395.2L18.11 370.45 113.57 275l24.74 24.75zM489.5 467H482V424.5a7.5 7.5 0 00-7.5-7.5h-200a7.5 7.5 0 00-7.5 7.5V467h-7.5A22.52 22.52 0 00237 489.5v15a7.5 7.5 0 007.5 7.5h260a7.5 7.5 0 007.5-7.5v-15A22.52 22.52 0 00489.5 467zM282 432H467v35H282zm215 65H252v-7.5a7.5 7.5 0 017.5-7.5h230a7.5 7.5 0 017.5 7.5zM457.81 362.89a7.5 7.5 0 0010.57.92l30.37-25.49a7.5 7.5 0 00-9.64-11.49l-30.38 25.49A7.51 7.51 0 00457.81 362.89zM441.8 351.38a7.34 7.34 0 002.7.51 7.49 7.49 0 007-4.8l11.31-29.26a7.5 7.5 0 00-14-5.41L437.5 341.69A7.49 7.49 0 00441.8 351.38zM466.36 380.65a7.5 7.5 0 007.35 6.06 8 8 0 001.45-.14l30.78-6.05a7.5 7.5 0 10-2.89-14.72l-30.78 6.05A7.5 7.5 0 00466.36 380.65z"></path></svg>