<svg xmlns="http://www.w3.org/2000/svg" width="110" height="110" version="1.0" viewBox="0 0 110 110" id="increase"><g><circle cx="55" cy="54.98" r="55" fill="#E04F5F"></circle><path fill="#4AC3AF" d="M23 68.982h64v18H23z"></path><path fill="#8CE3D4" d="M23 68.982l8-16h48l8 16z"></path><path fill="#0D9681" d="M28 66.982l6-12h42l6 12z"></path><circle cx="71" cy="60.982" r="1" fill="#C2F8F0"></circle><circle cx="39" cy="60.982" r="1" fill="#C2F8F0"></circle><ellipse cx="55" cy="60.982" fill="#C2F8F0" rx="6" ry="5"></ellipse><path fill="#17B198" d="M54.96 57.501c.272 0 .488.18.488.407v.109c.507.062.957.188 1.361.376.178.086.338.235.338.47 0 .297-.281.524-.638.524a.775.775 0 0 1-.328-.071 4.058 4.058 0 0 0-.779-.266v1.19c1.426.321 2.036.806 2.036 1.683 0 .876-.807 1.44-1.99 1.55v.415c0 .227-.216.407-.488.407s-.488-.18-.488-.407v-.423a5.31 5.31 0 0 1-1.849-.548c-.197-.102-.319-.258-.319-.47 0-.305.282-.532.648-.532.122 0 .253.039.366.102.394.211.77.36 1.201.438V61.21c-1.351-.305-2.018-.736-2.018-1.667 0-.861.788-1.44 1.971-1.542v-.094c.001-.226.216-.406.488-.406zm-.44 2.536V58.98c-.45.055-.647.243-.647.493-.001.243.13.408.647.564zm.882 1.37v1.088c.441-.055.666-.227.666-.509 0-.258-.16-.43-.666-.579z"></path><path fill="#C2F8F0" d="M23 70.982h64v2H23zM23 74.982h64v2H23zM23 78.982h64v2H23zM23 82.982h64v2H23z"></path><path fill="#8CE3D4" d="M23 70.982h21.527l2-2H23zM23 74.982h17.527l2-2H23zM23 84.982v2h5.527l2-2zM23 78.982h13.527l2-2H23zM23 82.982h9.527l2-2H23z"></path><path fill="#C2F8F0" d="M23 68.982h23.527l2-2H28l6-12h26.527l2-2H31z"></path><path fill="#17B198" d="M49 60.982c0-2.761 2.686-5 6-5 1.331 0 2.556.365 3.551.976l1.976-1.976H34l-6 12h20.527l2.364-2.364C49.729 63.706 49 62.416 49 60.982zm-10 1a1 1 0 1 1 0-2 1 1 0 0 1 0 2z"></path><circle cx="39" cy="60.982" r="1" fill="#FFF"></circle><path fill="#FFF" d="M49 60.982c0 1.435.729 2.725 1.891 3.636l1.715-1.715c-.184-.102-.301-.251-.301-.455 0-.305.282-.532.648-.532.122 0 .253.039.366.102.04.021.079.034.118.054l.906-.906c-1.227-.303-1.84-.734-1.84-1.622 0-.861.788-1.44 1.971-1.542v-.094c0-.227.216-.407.488-.407s.488.18.488.407v.109c.507.062.957.188 1.361.376a.748.748 0 0 1 .18.126l1.562-1.562a6.786 6.786 0 0 0-3.551-.976C51.686 55.982 49 58.22 49 60.982z"></path><path fill="#FFF" d="M55.402 59.051v1.056l.788-.788-.009-.002a4.081 4.081 0 00-.779-.266zM53.872 59.474c0 .243.131.407.647.563V58.98c-.45.055-.647.243-.647.494zM23 72.982h19.527l2-2H23zM23 76.982h15.527l2-2H23zM23 80.982h11.527l2-2H23zM23 84.982h7.527l2-2H23z"></path><path fill="#FBE158" d="M69.663 28.626l4.225 4.225L65 41.739l-10-10-21.242 21.243h8.484L55 40.224l10 10 13.13-13.13 4.226 4.225L87 23.982z"></path></g></svg>