<svg xmlns="http://www.w3.org/2000/svg" width="64" height="64" enable-background="new 0 0 64 64" viewBox="0 0 64 64" id="location-pins"><path fill="#010101" d="M9.619 5.304c-2.967 0-5.372 2.405-5.372 5.372 0 2.958 2.405 5.372 5.372 5.372 2.957 0 5.372-2.415 5.372-5.372C14.991 7.709 12.577 5.304 9.619 5.304zM9.619 14.109c-1.901 0-3.433-1.542-3.433-3.433 0-1.891 1.532-3.433 3.433-3.433 1.891 0 3.433 1.542 3.433 3.433C13.052 12.567 11.51 14.109 9.619 14.109zM54.381 42.618c-2.967 0-5.372 2.405-5.372 5.372 0 2.958 2.405 5.372 5.372 5.372 2.958 0 5.362-2.415 5.362-5.372C59.743 45.023 57.338 42.618 54.381 42.618zM54.381 51.423c-1.901 0-3.433-1.542-3.433-3.433s1.532-3.433 3.433-3.433c1.891 0 3.423 1.542 3.423 3.433S56.271 51.423 54.381 51.423z"></path><path fill="#010101" d="M54.381,38.371c-5.314,0-9.629,4.315-9.629,9.619c0,3.918,4.878,10.056,7.447,13.013H8.465
		c-1.988,0-3.617-1.619-3.617-3.617c0-1.988,1.629-3.607,3.617-3.607h29.023c2.482,0,4.509-2.027,4.509-4.519
		c0-2.482-2.027-4.509-4.509-4.509H18.88c-1.416,0-2.579-1.154-2.579-2.579v-3.908c0-1.416,1.164-2.57,2.579-2.57h24.175
		c2.492,0,4.519-2.027,4.519-4.519v-2.967c0-2.492-2.027-4.519-4.519-4.519H11.791c2.57-2.958,7.447-9.096,7.447-13.013
		c0-5.304-4.315-9.619-9.619-9.619C4.315,1.057,0,5.372,0,10.676c0,5.013,7.99,13.663,8.902,14.642
		c0.184,0.194,0.427,0.31,0.708,0.31h33.445c1.425,0,2.579,1.154,2.579,2.579v2.967c0,1.416-1.154,2.579-2.579,2.579H18.88
		c-2.492,0-4.519,2.017-4.519,4.509v3.908c0,2.492,2.027,4.519,4.519,4.519h18.608c1.416,0,2.57,1.154,2.57,2.57
		c0,1.425-1.154,2.579-2.57,2.579H8.465c-3.064,0-5.556,2.492-5.556,5.547c0,3.064,2.492,5.556,5.556,5.556h45.915
		c0.136,0,0.262-0.029,0.378-0.078c0.019-0.01,0.039-0.029,0.058-0.039c0.087-0.048,0.184-0.107,0.252-0.174
		c0.01-0.01,0.01-0.01,0.01-0.01C56,61.673,64,53.004,64,47.99C64,42.686,59.685,38.371,54.381,38.371z M1.939,10.676
		c0-4.238,3.442-7.68,7.68-7.68c4.228,0,7.68,3.442,7.68,7.68c0,3.278-5.023,9.571-7.68,12.548
		C6.953,20.247,1.939,13.954,1.939,10.676z M54.381,60.538c-2.667-2.977-7.69-9.27-7.69-12.548c0-4.238,3.452-7.68,7.69-7.68
		c4.228,0,7.68,3.442,7.68,7.68C62.061,51.268,57.038,57.561,54.381,60.538z"></path><path fill="#FDBF5E" d="M54.381,40.31c-4.238,0-7.69,3.442-7.69,7.68c0,3.278,5.023,9.571,7.69,12.548
		c2.657-2.977,7.68-9.27,7.68-12.548C62.061,43.753,58.608,40.31,54.381,40.31z M54.381,53.362c-2.967,0-5.372-2.415-5.372-5.372
		c0-2.967,2.405-5.372,5.372-5.372c2.958,0,5.362,2.405,5.362,5.372C59.743,50.948,57.338,53.362,54.381,53.362z"></path><path fill="#FDBF5E" d="M57.804,47.99c0,1.891-1.532,3.433-3.423,3.433c-1.901,0-3.433-1.542-3.433-3.433s1.532-3.433,3.433-3.433
		C56.271,44.558,57.804,46.099,57.804,47.99z"></path><path fill="#31A2DB" d="M9.619,2.996c-4.238,0-7.68,3.442-7.68,7.68c0,3.278,5.013,9.571,7.68,12.548
		c2.657-2.977,7.68-9.27,7.68-12.548C17.299,6.439,13.847,2.996,9.619,2.996z M9.619,16.049c-2.967,0-5.372-2.415-5.372-5.372
		c0-2.967,2.405-5.372,5.372-5.372c2.957,0,5.372,2.405,5.372,5.372C14.991,13.634,12.577,16.049,9.619,16.049z"></path><path fill="#31A2DB" d="M13.052,10.676c0,1.891-1.542,3.433-3.433,3.433c-1.901,0-3.433-1.542-3.433-3.433
		c0-1.891,1.532-3.433,3.433-3.433C11.51,7.244,13.052,8.785,13.052,10.676z"></path></svg>