<svg xmlns="http://www.w3.org/2000/svg" viewBox="0 0 64 64" id="logistics"><defs><linearGradient id="a" x1="32" x2="32" y1="64" y2="0" gradientUnits="userSpaceOnUse"><stop offset=".001" stop-color="#ffd255"></stop><stop offset=".999" stop-color="#ff78dc"></stop></linearGradient></defs><path fill="url(#a)" d="m49.05078125,39.63671875c-.796875-.796875-1.90625-1.23242188-3.02636719-1.16601562-1.12695312.05566406-2.18359375.58886719-2.8984375,1.46191406l-4.1015625,5.01367188c-.54296875.6640625-1.31445312,1.05371094-2.17089844,1.09667969-.86621094.03027344-1.6640625-.26757812-2.27148438-.875l-15.74951172-15.75c-.60693359-.60742188-.91748047-1.41308594-.875-2.27050781.04296875-.85742188.43212891-1.62890625,1.09667969-2.171875l5.01367188-4.10253906c.87304688-.71386719,1.40576172-1.76953125,1.46191406-2.89648438s-.36914062-2.23046875-1.16699219-3.02734375L11.828125,2.4140625c-1.55859375-1.55761719-4.09570312-1.55859375-5.65625,0l-2.95019531,2.95019531C1.14404297,7.44140625,0,10.20410156,0,13.14257812c0,13.07226562,5.09082031,25.36230469,14.33447266,34.60644531l1.91699219,1.91601562c4.39489746,4.39538574,9.48425293,7.83892822,15.01348877,10.2555542-2.96252441,1.35791016-6.19586182,2.07940674-9.47491455,2.07940674h-1.79003906c-.55224609,0-1,.44726562-1,1s.44775391,1,1,1h1.79003906c4.17773438,0,8.28955078-1.07043457,11.9354248-3.08123779,5.40838623,2.01745605,11.18719482,3.08123779,17.13195801,3.08123779,2.93847656,0,5.70117188-1.14453125,7.77832031-3.22167969l2.95019531-2.95019531c.75488281-.75488281,1.17089844-1.75976562,1.17089844-2.828125s-.41601562-2.07324219-1.17089844-2.828125l-12.53515625-12.53515625ZM9,3.24414062c.51220703,0,1.02441406.19433594,1.4140625.58398438l12.53466797,12.53515625c.40478516.40429688.61181641.94238281.58349609,1.51367188-.02832031.57226562-.28808594,1.0859375-.73095703,1.44824219l-1.13415527.92785645L6.4140625,5l1.171875-1.171875c.38964844-.38964844.90185547-.58398438,1.4140625-.58398438Zm41.85742188,58.75585938c-5.83435059,0-11.5012207-1.07025146-16.79193115-3.09417725-.05645752-.02404785-.109375-.05181885-.16918945-.06524658-6.01324463-2.32745361-11.53460693-5.89312744-16.23077393-10.58959961l-1.91699219-1.91601562C6.8828125,37.46875,2,25.68066406,2,13.14257812c0-2.40429688.93603516-4.6640625,2.63574219-6.36425781l.36425781-.36425781,15.11151123,15.11151123-2.32391357,1.90118408c-1.09130859.89257812-1.75732422,2.21289062-1.82763672,3.62109375s.46142578,2.78710938,1.45849609,3.78417969l15.74951172,15.75c.99804688.99707031,2.38378906,1.52246094,3.78515625,1.45800781,1.40820312-.0703125,2.72753906-.73632812,3.62011719-1.828125l1.90087891-2.32373047,15.11181641,15.11181641-.36425781.36425781c-1.70019531,1.69921875-3.95996094,2.63574219-6.36425781,2.63574219Zm9.31445312-5.5859375l-1.171875,1.171875-15.25335693-15.25335693.92718506-1.13336182c.36328125-.44335938.87792969-.703125,1.44921875-.73144531.58691406-.02832031,1.109375.1796875,1.51367188.58300781l12.53515625,12.53515625c.77929688.77929688.77929688,2.04882812,0,2.828125Zm3.25097656-49.3203125L48.42285156.09375c-.26757812-.125-.578125-.125-.84570312,0l-15,7c-.35205078.1640625-.57714844.51757812-.57714844.90625v18c0,.38867188.22509766.7421875.57714844.90625l15,7c.00512695.00238037.01104736.00128174.01623535.00360107.12475586.05584717.26092529.09014893.40661621.09014893s.28192139-.03424072.40667725-.09014893c.00512695-.00231934.01104736-.0012207.01617432-.00360107l15-7c.35253906-.1640625.57714844-.51757812.57714844-.90625V8c0-.38867188-.22460938-.7421875-.57714844-.90625Zm-2.78747559.90618896l-12.63537598,5.89654541-5.3793335-2.51037598,12.60125732-5.91241455,5.41345215,2.52624512Zm-12.63537598-5.89642334l4.86138916,2.26861572-12.6005249,5.91271973-4.89624023-2.28491211,12.63537598-5.89642334Zm1,29.32629395v-11.43078613c0-.55273438-.44726562-1-1-1s-1,.44726562-1,1v11.43078613l-13-6.06652832v-15.79302979l5,2.33331299v7.09643555c0,.55273438.44726562,1,1,1s1-.44726562,1-1v-6.16308594l6.57714844,3.06933594c.13378906.0625.27832031.09375.42285156.09375s.2890625-.03125.42285156-.09375l13.57714844-6.33599854v15.79302979l-13,6.06652832Zm-3.09375-3.87316895c-.16992188.36328125-.53027344.57714844-.90722656.57714844-.14160156,0-.28515625-.03027344-.421875-.09375l-2-.93359375c-.50097656-.23339844-.71679688-.82910156-.48339844-1.32910156.234375-.5.82910156-.71484375,1.32910156-.48339844l2,.93359375c.50097656.23339844.71679688.82910156.48339844,1.32910156Z"></path></svg>