<svg xmlns="http://www.w3.org/2000/svg" enable-background="new 0 0 64 64" viewBox="0 0 64 64" id="pedals"><polygon fill="#b5b1a5" points="14 26 30 26 30 36 26 40 18 40 14 36"></polygon><path fill="#d9d5ca" d="M28.087,37.913L30,36V26H14v0.507C15.012,30.306,18.174,36.365,28.087,37.913z"></path><polygon fill="#b5b1a5" points="50 26 50 54 36 54 36 43 39 40 39 26"></polygon><path fill="#d9d5ca" d="M40.587,42.75c0,5.133,4.161,9.293,9.293,9.293H50V26h-9.413V42.75z"></path><path fill="#c3313c" d="M60,16H4c-1.105,0-2-0.895-2-2v-4h60v4C62,15.105,61.105,16,60,16z"></path><path fill="#db3845" d="M5.081,10c0.384,2.268,2.345,4,4.723,4H62v-4H5.081z"></path><rect width="5" height="10" x="42" y="16" fill="#bdbdbe"></rect><rect width="5" height="10" x="20" y="16" fill="#bdbdbe"></rect><rect width="7" height="2" x="41" y="33" fill="#4a4b4c"></rect><rect width="7" height="2" x="41" y="37" fill="#4a4b4c"></rect><rect width="7" height="2" x="41" y="41" fill="#4a4b4c"></rect><rect width="10" height="2" x="38" y="45" fill="#4a4b4c"></rect><rect width="10" height="2" x="38" y="49" fill="#4a4b4c"></rect><rect width="12" height="2" x="16" y="32" fill="#4a4b4c"></rect><rect width="8" height="2" x="18" y="35" fill="#4a4b4c"></rect><rect width="6" height="2" x="29" y="12" fill="#92252d"></rect><rect width="6" height="2" x="37" y="12" fill="#92252d"></rect><rect width="6" height="2" x="21" y="12" fill="#92252d"></rect><path fill="#d7d7d8" d="M47 26v-8.293h-.12c-1.945 0-3.522 1.577-3.522 3.522V26H47zM25 26v-8.293h-.12c-1.945 0-3.522 1.577-3.522 3.522V26H25z"></path><ellipse cx="28" cy="28.39" fill="#fff" rx="1.103" ry="2.22" transform="rotate(-33.06 27.996 28.389)"></ellipse><ellipse cx="47.761" cy="28.39" fill="#fff" rx="1.103" ry="2.22" transform="rotate(-33.06 47.755 28.39)"></ellipse><ellipse cx="58.424" cy="12" fill="#f8d7da" rx="2.462" ry="1.223"></ellipse><rect width="12" height="2" x="16" y="28" fill="#4a4b4c"></rect><rect width="7" height="2" x="41" y="29" fill="#4a4b4c"></rect><g><rect width="7" height="2" x="41" y="29"></rect><rect width="7" height="2" x="41" y="33"></rect><rect width="7" height="2" x="41" y="37"></rect><rect width="7" height="2" x="41" y="41"></rect><rect width="10" height="2" x="38" y="45"></rect><rect width="10" height="2" x="38" y="49"></rect><rect width="12" height="2" x="16" y="28"></rect><rect width="12" height="2" x="16" y="32"></rect><rect width="8" height="2" x="18" y="35"></rect><path d="M62,9H2c-0.553,0-1,0.447-1,1v4c0,1.654,1.346,3,3,3h15v8h-5c-0.553,0-1,0.447-1,1v10c0,0.266,0.105,0.52,0.293,0.707l4,4
		C17.48,40.895,17.734,41,18,41h8c0.266,0,0.52-0.105,0.707-0.293l4-4C30.895,36.52,31,36.266,31,36V26c0-0.553-0.447-1-1-1h-4v-8
		h15v8h-2c-0.553,0-1,0.447-1,1v13.586l-2.707,2.707C35.105,42.48,35,42.734,35,43v11c0,0.553,0.447,1,1,1h14c0.553,0,1-0.447,1-1
		V26c0-0.553-0.447-1-1-1h-2v-8h12c1.654,0,3-1.346,3-3v-4C63,9.447,62.553,9,62,9z M29,35.586L25.586,39h-7.172L15,35.586V27h14
		V35.586z M24,25h-3v-8h3V25z M49,53H37v-9.586l2.707-2.707C39.895,40.52,40,40.266,40,40V27h9V53z M46,25h-3v-8h3V25z M61,14
		c0,0.552-0.448,1-1,1H4c-0.552,0-1-0.448-1-1v-3h58V14z"></path><rect width="6" height="2" x="29" y="12"></rect><rect width="6" height="2" x="37" y="12"></rect><rect width="6" height="2" x="21" y="12"></rect></g></svg>