<svg xmlns="http://www.w3.org/2000/svg" viewBox="0 0 100 100" id="pedals"><path d="M25 37V21c0-1.1-.9-2-2-2H13c-1.1 0-2 .9-2 2v16c-3.3 0-6 2.7-6 6v22c0 3.3 2.7 6 6 6h14c3.3 0 6-2.7 6-6V43c0-3.3-2.7-6-6-6zM9 51h18v6H9v-6zm6-28h6v14h-6V23zM9 43c0-1.1.9-2 2-2h14c1.1 0 2 .9 2 2v4H9v-4zm18 22c0 1.1-.9 2-2 2H11c-1.1 0-2-.9-2-2v-4h18v4zm30-28V21c0-1.1-.9-2-2-2H45c-1.1 0-2 .9-2 2v16c-3.3 0-6 2.7-6 6v22c0 3.3 2.7 6 6 6h14c3.3 0 6-2.7 6-6V43c0-3.3-2.7-6-6-6zM41 51h18v6H41v-6zm6-28h6v14h-6V23zm-6 20c0-1.1.9-2 2-2h14c1.1 0 2 .9 2 2v4H41v-4zm18 22c0 1.1-.9 2-2 2H43c-1.1 0-2-.9-2-2v-4h18v4zm30-28V21c0-1.1-.9-2-2-2H77c-1.1 0-2 .9-2 2v16c-3.3 0-6 2.7-6 6v32c0 3.3 2.7 6 6 6h14c3.3 0 6-2.7 6-6V43c0-3.3-2.7-6-6-6zm2 20H73v-6h18v6zm-18 4h18v6H73v-6zm6-38h6v14h-6V23zm-6 20c0-1.1.9-2 2-2h14c1.1 0 2 .9 2 2v4H73v-4zm18 32c0 1.1-.9 2-2 2H75c-1.1 0-2-.9-2-2v-4h18v4z"></path></svg>