<svg xmlns="http://www.w3.org/2000/svg" enable-background="new 0 0 24 24" viewBox="0 0 24 24" id="pedals"><g><path fill="#d3d3d3" d="M12.5793,10.8391l-2.7669-0.4773c-0.7618-0.1314-1.5152,0.2725-1.8275,0.9797l0,0
			c-0.3758,0.8511,0.0095,1.8458,0.8606,2.2216l8.5216,3.7627c2.0209,0.8923,4.3825-0.0225,5.2749-2.0434l0.4039-0.9148
			c0.6693-1.5157-0.0169-3.2869-1.5326-3.9562l-0.9987-0.441c-0.5418-0.2392-1.1423-0.3127-1.7258-0.2113L12.5793,10.8391z"></path><path fill="#262656" d="M16.9814 16.6694c-.6865 0-1.3721-.1436-2.0186-.4292l-8.5215-3.7627c-.6563-.2896-1.1602-.8174-1.4189-1.4863C4.7637 10.3228 4.7813 9.5933 5.0703 8.937c.498-1.1284 1.6943-1.771 2.9121-1.5605l2.5957.4478 6.04-1.0503c.7773-.1348 1.5752-.0391 2.3008.2813l.999.4419c.9766.4312 1.7275 1.2173 2.1133 2.2139.3857.9961.3613 2.083-.0703 3.0605l-.4043.915c-.5391 1.2212-1.5225 2.1602-2.7676 2.6426C18.2031 16.5562 17.5918 16.6694 16.9814 16.6694zM7.5254 9.3374c-.2676 0-.5146.1563-.625.4072-.0742.168-.0791.354-.0127.5249.0664.1704.1943.3047.3623.3784l8.5215 3.7632c.7314.3228 1.5469.3428 2.2949.0527.7471-.2891 1.3369-.8525 1.6602-1.5854l.4043-.915c.4453-1.0088-.0127-2.1919-1.0205-2.6367l-1-.4419c-.3613-.1597-.7578-.2085-1.1494-.1401L10.75 9.8247c-.1123.019-.2285.0195-.3408 0L7.6426 9.3472C7.6035 9.3403 7.5635 9.3374 7.5254 9.3374zM12.999 18.0005c-.1328 0-.2686-.0273-.3994-.084L2.3799 13.4546c-.5059-.2212-.7373-.8105-.5156-1.3164.2207-.5049.8057-.7373 1.3164-.5166l10.2197 4.4619c.5059.2212.7373.8105.5156 1.3164C13.752 17.7759 13.3848 18.0005 12.999 18.0005z"></path></g></svg>