<svg xmlns="http://www.w3.org/2000/svg" width="512" height="512" fill-rule="evenodd" clip-rule="evenodd" image-rendering="optimizeQuality" shape-rendering="geometricPrecision" text-rendering="geometricPrecision" viewBox="0 0 512 512" id="recession"><path fill="#fab303" fill-rule="nonzero" d="M404.38 110.11l-139.28 0c-3.31 0-6-2.69-6-6l0-41.12c0-8.01 3.27-15.28 8.54-20.55 5.27-5.27 12.55-8.54 20.55-8.54l93.1 0c8.01 0 15.28 3.27 20.55 8.54 5.27 5.27 8.54 12.54 8.54 20.55l0 41.12c0 3.31-2.68 6-6 6zM334.74 477.77c-7.31.48-115.32 6.43-159.09-63.62-1.5-2.41-1.08-5.47.85-7.4l0 0 72.64-72.65 0 0c3.37-3.37 5.06-7.82 5.06-12.27 0-4.47-1.68-8.92-5.04-12.29l-.02.01 0 0-.04-.04c-3.36-3.34-7.8-5.02-12.24-5.02-4.46 0-8.91 1.69-12.28 5.05l.01.01-55.9 55.9c-2.35 2.35-6.15 2.35-8.49 0-1.16-1.16-1.74-2.67-1.76-4.19l-.02-.27-.01-.19-.01 0-.67-11.12c-.01-.18-.01-.35-.01-.52-.02-.67-.03-1.38-.04-2.18-.01-.7-.02-1.42-.02-2.16-.07-.91-9.31-113.67 118.9-206.05 1.06-.76 2.28-1.12 3.49-1.12l0-.02 109.38 0c1.51 0 2.89.56 3.95 1.48 128.05 92.55 118.46 205.4 118.44 205.73l-.01.08c.37 142.87-168.09 133.45-177.07 132.85z"></path><path fill="#f5efca" fill-rule="nonzero" d="M328.61 215.43l0 -21.71c0,-3.32 2.68,-6 6,-6 3.31,0 6,2.68 6,6l0 21.68c11.3,1.33 21.43,6.48 29.07,14.12 8.94,8.94 14.47,21.29 14.47,34.94 0,3.31 -2.69,6 -6,6 -3.32,0 -6,-2.69 -6,-6 0,-10.33 -4.19,-19.69 -10.96,-26.45 -6.77,-6.77 -16.12,-10.96 -26.45,-10.96 -10.33,0 -19.68,4.19 -26.45,10.96 -6.77,6.76 -10.96,16.12 -10.96,26.45 0,10.33 4.19,19.68 10.96,26.45 6.77,6.77 16.12,10.95 26.45,10.95 13.64,0 26,5.53 34.94,14.47 8.94,8.95 14.47,21.3 14.47,34.94 0,13.64 -5.53,26 -14.47,34.94 -7.64,7.64 -17.78,12.79 -29.07,14.12l0 21.68c0,3.31 -2.69,6 -6,6 -3.32,0 -6,-2.69 -6,-6l0 -21.71c-11.19,-1.39 -21.23,-6.51 -28.81,-14.09 -8.93,-8.94 -14.47,-21.3 -14.47,-34.94 0,-3.31 2.69,-6 6,-6 3.32,0 6,2.69 6,6 0,10.33 4.19,19.68 10.96,26.45 6.77,6.77 16.12,10.96 26.45,10.96 10.33,0 19.68,-4.19 26.45,-10.96 6.77,-6.77 10.96,-16.12 10.96,-26.45 0,-10.33 -4.19,-19.68 -10.96,-26.45 -6.77,-6.77 -16.12,-10.96 -26.45,-10.96 -13.64,0 -25.99,-5.53 -34.94,-14.47 -8.94,-8.94 -14.47,-21.29 -14.47,-34.93 0,-13.65 5.53,-26 14.47,-34.94 7.58,-7.58 17.62,-12.7 28.81,-14.09z"></path><path fill="#68ca44" fill-rule="nonzero" d="M413.72 149.62l-157.96 0c-6.9 0-13.19-2.75-17.82-7.21-.13-.11-.26-.22-.38-.35-4.66-4.66-7.56-11.1-7.56-18.19 0-7.09 2.9-13.53 7.56-18.2l.01.01.02-.01c4.66-4.66 11.1-7.56 18.17-7.56l157.96 0c6.9 0 13.19 2.76 17.82 7.22.13.1.26.22.38.34 4.66 4.67 7.56 11.11 7.56 18.2 0 7.09-2.9 13.53-7.56 18.19l-.01-.01-.01.01c-4.67 4.67-11.1 7.56-18.18 7.56zM8.57 301.07l0-.01 0 0c5.72-5.71 13.24-8.57 20.76-8.57l0 .03c7.52 0 15.04 2.85 20.74 8.54l.01.01.01-.01 0 0 46.4 46.4 13.08-228.9c.18-3.3 3-5.83 6.3-5.65l34.03 0c3.19 0 5.79 2.49 5.97 5.62l.01 0 13.72 229.04 46.5-46.51.01 0c.12-.12.24-.23.37-.34 5.67-5.48 13.03-8.23 20.38-8.23l0 .03c7.54 0 15.07 2.85 20.77 8.54l0 0 0 .01c5.71 5.71 8.57 13.23 8.57 20.76 0 7.52-2.86 15.04-8.57 20.76l-103.77 103.76c-5.71 5.72-13.24 8.58-20.76 8.58-7.52 0-15.05-2.86-20.76-8.58l-103.77-103.76c-5.71-5.72-8.57-13.24-8.57-20.76 0-7.52 2.86-15.05 8.57-20.76z"></path></svg>