<svg xmlns="http://www.w3.org/2000/svg" xmlns:xlink="http://www.w3.org/1999/xlink" width="37.994" height="44.027" viewBox="0 0 10.053 11.649" id="recycle"><defs><linearGradient id="a"><stop offset="0" stop-color="#ff5252"></stop><stop offset="1" stop-color="#ffb300"></stop></linearGradient><linearGradient id="b" x1="6.35" x2="6.35" y1="11.906" y2="6.615" gradientTransform="translate(30.957 51.858)" gradientUnits="userSpaceOnUse" xlink:href="#a"></linearGradient></defs><path fill="url(#b)" d="m 36.590983,52.383883 -0.31626,0.424262 0.601,0.451136 c -2.57098,0.220218 -4.59507,2.378599 -4.59507,5.005896 0,1.740122 0.88644,3.277679 2.23242,4.179591 l 0.29301,-0.439767 c -1.20455,-0.807138 -1.99626,-2.179148 -1.99626,-3.739824 0,-2.333908 1.77089,-4.2485 4.04419,-4.475695 l -0.60668,0.596863 0.37104,0.376719 1.13895,-1.120859 c 0.11589,-0.113118 0.1039,-0.302874 -0.0253,-0.400495 z m 3.51193,1.588016 -0.29507,0.439767 c 1.20455,0.807138 1.99832,2.179145 1.99833,3.739825 0,2.334085 -1.77117,4.248737 -4.04472,4.475694 l 0.60513,-0.596347 -0.37103,-0.377238 -1.13895,1.121378 c -0.11537,0.113229 -0.10314,0.30253 0.0259,0.399976 l 1.1405,0.85783 0.31832,-0.424262 -0.60358,-0.453205 c 2.57205,-0.218781 4.59559,-2.37563 4.59559,-5.003826 0,-1.740123 -0.88437,-3.27768 -2.23035,-4.179592 z m -0.15503,1.5875 c -0.003,1.25e-4 -0.006,2.65e-4 -0.009,5.3e-4 -0.005,5.29e-4 -0.0107,0.0013 -0.016,0.0021 0,0 -1.00035,0.1382 -1.82418,0.513662 -0.29999,0.136734 -0.58747,0.303165 -0.79169,0.535385 -0.20422,-0.23236 -0.4921,-0.398598 -0.7922,-0.535369 -0.82383,-0.375462 -1.82418,-0.513662 -1.82418,-0.513662 -0.0142,-0.0019 -0.0286,-0.0026 -0.0429,-0.0021 -0.15891,0.0036 -0.27879,0.145542 -0.25579,0.302823 0,0 0.1382,1.000347 0.51366,1.82418 0.18773,0.411914 0.42975,0.800513 0.82424,0.9803 0.19724,0.08989 0.43533,0.111731 0.66766,0.04134 0.21503,-0.06515 0.42391,-0.201681 0.63665,-0.404108 v 0.711067 c -0.38829,0.04343 -0.74311,0.180856 -1.02112,0.40566 -0.34049,0.275322 -0.56172,0.68781 -0.56638,1.162203 -0.002,0.147735 0.11788,0.268256 0.26562,0.267684 h 1.06608 v -0.529697 h -0.67179 c 0.0593,-0.17493 0.0903,-0.366525 0.24029,-0.487826 0.23213,-0.187701 0.56777,-0.304892 0.95292,-0.304892 0.38514,0 0.72538,0.117176 0.95911,0.304892 0.15215,0.12219 0.17929,0.31287 0.23616,0.487826 h -1.187 v 0.529669 h 1.57768 c 0.14552,5.29e-4 0.26418,-0.116485 0.26561,-0.261998 0.005,-0.477288 -0.21738,-0.892583 -0.56017,-1.16789 -0.28044,-0.225229 -0.63769,-0.362521 -1.02733,-0.405659 v -0.726054 c 0.21857,0.211162 0.43373,0.352293 0.65423,0.419095 0.23233,0.07039 0.46886,0.04855 0.66611,-0.04134 0.39449,-0.179787 0.6365,-0.568386 0.82424,-0.9803 0.37546,-0.823833 0.51366,-1.82418 0.51366,-1.82418 0.0246,-0.165008 -0.10776,-0.311338 -0.2744,-0.30334 z m -4.91546,0.642856 c 0.30282,0.05563 0.72345,0.109172 1.26401,0.355534 0.35926,0.163737 0.635,0.378859 0.71881,0.562755 0.0438,0.09471 0.0196,0.20216 0.0155,0.293005 -0.0225,0.07438 -0.0708,0.165246 -0.14625,0.267684 l -0.71933,-0.71882 -0.37259,0.373105 0.71934,0.719336 c -0.10264,0.07623 -0.19371,0.125225 -0.2682,0.147794 -0.11999,0.03635 -0.20313,0.02588 -0.29508,-0.01601 -0.18389,-0.08381 -0.39695,-0.361101 -0.56069,-0.720368 -0.24636,-0.54056 -0.2999,-0.961189 -0.35553,-1.264005 z m 4.54907,0 c -0.0556,0.30286 -0.10712,0.723498 -0.35346,1.264004 -0.16374,0.359267 -0.37886,0.636559 -0.56276,0.720371 -0.092,0.0419 -0.17456,0.05237 -0.29455,0.01601 -0.0742,-0.02249 -0.16554,-0.07105 -0.26769,-0.146759 l 0.72037,-0.72037 -0.37465,-0.373105 -0.71934,0.71882 c -0.0754,-0.102386 -0.12371,-0.193331 -0.14624,-0.267685 -0.0285,-0.102444 0.006,-0.203025 0.016,-0.293004 0.0838,-0.183899 0.35955,-0.399019 0.71882,-0.562756 0.53998,-0.246097 0.96019,-0.299781 1.26349,-0.355534 z" color="#000" font-family="sans-serif" font-weight="400" overflow="visible" transform="translate(-32.28 -52.384)" style="line-height:normal;font-variant-ligatures:normal;font-variant-position:normal;font-variant-caps:normal;font-variant-numeric:normal;font-variant-alternates:normal;font-variant-east-asian:normal;font-feature-settings:normal;font-variation-settings:normal;text-indent:0;text-align:start;text-decoration-line:none;text-decoration-style:solid;text-decoration-color:#000;text-transform:none;text-orientation:mixed;shape-padding:0;shape-margin:0;inline-size:0;isolation:auto;mix-blend-mode:normal"></path></svg>