<svg xmlns="http://www.w3.org/2000/svg" xmlns:xlink="http://www.w3.org/1999/xlink" viewBox="0 0 64 64" id="route"><defs><linearGradient id="a" x1="-8.474" x2="56.84" y1="56.579" y2="4.328" gradientUnits="userSpaceOnUse"><stop offset="0" stop-color="#fff200"></stop><stop offset="1" stop-color="#cd118c"></stop></linearGradient><linearGradient id="b" x1="-2.864" x2="62.45" y1="63.592" y2="11.34" xlink:href="#a"></linearGradient><linearGradient id="c" x1="-.767" x2="64.547" y1="66.214" y2="13.962" xlink:href="#a"></linearGradient><linearGradient id="d" x1="-8.133" x2="57.181" y1="57.006" y2="4.755" xlink:href="#a"></linearGradient></defs><g><path fill="url(#a)" d="M50 13a4 4 0 1 0-4 4 4 4 0 0 0 4-4Zm-6 0a2 2 0 1 1 2 2 2 2 0 0 1-2-2Z"></path><path fill="url(#b)" d="M61 12h-2v-2a1 1 0 0 0-1-1h-3.95a8.98 8.98 0 0 0-16.1 0H6a1 1 0 0 0-1 1v2H3a1 1 0 0 0-1 1v46a1 1 0 0 0 1 1h58a1 1 0 0 0 1-1V13a1 1 0 0 0-1-1ZM46 6a7.008 7.008 0 0 1 7 7c0 2.97-4.53 8.71-7 11.51-2.47-2.8-7-8.54-7-11.51a7.008 7.008 0 0 1 7-7ZM4 58V14h1v40a1 1 0 0 0 1 1h22a3.009 3.009 0 0 1 3 3Zm28-2.97A4.994 4.994 0 0 0 28 53H7V11h30.23a8.759 8.759 0 0 0-.23 2c0 4.68 7.42 12.77 8.27 13.68a.993.993 0 0 0 1.46 0c.85-.91 8.27-9 8.27-13.68a8.759 8.759 0 0 0-.23-2H57v42H36a4.994 4.994 0 0 0-4 2.03ZM60 58H33a3.009 3.009 0 0 1 3-3h22a1 1 0 0 0 1-1V14h1Z"></path><path fill="url(#c)" d="M34.5 50a5.5 5.5 0 0 0 0-11h-5a3.5 3.5 0 0 1 0-7h14.778a2 2 0 1 0 0-2H29.5a5.5 5.5 0 0 0 0 11h5a3.5 3.5 0 0 1 0 7H17.722a2 2 0 1 0 0 2Z"></path><path fill="url(#d)" d="M15 45h2v-4.1a5 5 0 1 0-2 0Zm-2-9a3 3 0 1 1 3 3 3 3 0 0 1-3-3Z"></path></g></svg>