<svg xmlns="http://www.w3.org/2000/svg" viewBox="0 0 64 64" id="route"><path fill="#00d8c3" d="M20.5,8A12.5,12.5,0,1,0,33,20.5,12.5,12.5,0,0,0,20.5,8ZM22,29a2,2,0,1,1,2-2A2,2,0,0,1,22,29Z" opacity=".4"></path><path fill="#1b163f" d="M49,26.1l-.41-.19c-.31-.14-7.59-3.54-7.59-11a8,8,0,0,1,16,0c0,7.46-7.28,10.86-7.59,11ZM49,9a6,6,0,0,0-6,5.91c0,5.25,4.58,8.18,6,9,1.42-.78,6-3.73,6-9A6,6,0,0,0,49,9Z"></path><path fill="#1b163f" d="M49 18.88a3.94 3.94 0 1 1 4-3.94A4 4 0 0 1 49 18.88zM49 13a1.94 1.94 0 1 0 2 1.94A2 2 0 0 0 49 13zM8 57a1 1 0 0 1-.63-.23A1 1 0 0 1 7 55.71l2-6.71L7 42.29a1 1 0 0 1 1.43-1.17l13 7a1 1 0 0 1 0 1.76l-13 7A1 1 0 0 1 8 57zM9.65 44l1.41 4.68a1 1 0 0 1 0 .58L9.65 54l9.24-5zM49 28H25a1 1 0 0 1 0-2H49a1 1 0 0 1 0 2zM47.5 50H36a1 1 0 0 1 0-2H47.5a4.5 4.5 0 0 0 0-9H47a1 1 0 0 1 0-2h.5a6.5 6.5 0 0 1 0 13zM30 50H24a1 1 0 0 1 0-2h6a1 1 0 0 1 0 2zM41 39H16.5a6.5 6.5 0 1 1 0-13H19a1 1 0 0 1 0 2H16.5a4.5 4.5 0 0 0 0 9H41a1 1 0 0 1 0 2z"></path><path fill="#1b163f" d="M22,23a4,4,0,1,0,4,4A4,4,0,0,0,22,23Zm0,6a2,2,0,1,1,2-2A2,2,0,0,1,22,29Z"></path><circle cx="22" cy="27" r="2" fill="#1b163f" opacity=".4"></circle><path fill="#1b163f" d="M44,34a4,4,0,1,0,4,4A4,4,0,0,0,44,34Zm0,6a2,2,0,1,1,2-2A2,2,0,0,1,44,40Z"></path><circle cx="44" cy="38" r="2" fill="#1b163f" opacity=".4"></circle><path fill="#1b163f" d="M33,45a4,4,0,1,0,4,4A4,4,0,0,0,33,45Zm0,6a2,2,0,1,1,2-2A2,2,0,0,1,33,51Z"></path><circle cx="33" cy="49" r="2" fill="#1b163f" opacity=".4"></circle></svg>