<svg xmlns="http://www.w3.org/2000/svg" viewBox="0 0 24 24" id="security-shield"><linearGradient id="a" x1="1" x2="23" y1="12" y2="12" gradientUnits="userSpaceOnUse"><stop offset=".198" stop-color="#60d3fc"></stop><stop offset=".872" stop-color="#fc6bf8"></stop></linearGradient><path fill="url(#a)" d="M23 8v5.08a6.18 6.18 0 0 1-2.99 5.28l-7.5 4.5a1.002 1.002 0 0 1-1.02 0l-7.5-4.5A6.18 6.18 0 0 1 1 13.08V5c0-.44.29-.83.71-.96l10-3c.19-.06.39-.06.57 0l10 3a1.003 1.003 0 0 1-.58 1.92L12 3.04l-9 2.7v7.34c0 1.45.77 2.82 2.01 3.56L12 20.83l6.99-4.19A4.167 4.167 0 0 0 21 13.08V8c0-.55.45-1 1-1s1 .45 1 1zm-12 7v-1.18C9.84 13.4 9 12.3 9 11c0-1.65 1.35-3 3-3s3 1.35 3 3c0 1.3-.84 2.4-2 2.82V15c0 .55-.45 1-1 1s-1-.45-1-1zm0-4c0 .55.45 1 1 1s1-.45 1-1-.45-1-1-1-1 .45-1 1z"></path></svg>