<svg xmlns="http://www.w3.org/2000/svg" width="32" height="32" id="social"><g transform="translate(264.576 -1169.286)"><path fill="#f6ec54" style="isolation:auto;mix-blend-mode:normal" d="M-348.5 1175.862v11.02h-4v3.74l-3.217-3.74h-9.783v-11.02z" color="#000" overflow="visible" transform="matrix(-.6469 0 0 .64392 -480.94 431.7)"></path><path fill="#f8d459" style="isolation:auto;mix-blend-mode:normal" d="M-349.924 1175.862v8.71c0 .553-.446 1-1 1H-365.5v1.31h9.783l3.217 3.74v-3.74h4v-11.02h-1.424z" color="#000" overflow="visible" transform="matrix(-.6469 0 0 .64392 -480.94 431.7)"></path><path fill="#fff" style="isolation:auto;mix-blend-mode:normal" d="M-365.5 1175.862v11.02h1.576v-8.81c0-.555.446-1 1-1h14.424v-1.21h-17z" color="#000" overflow="visible" transform="matrix(-.6469 0 0 .64392 -480.94 431.7)"></path><path fill="none" stroke="#000" stroke-dashoffset=".4" style="isolation:auto;mix-blend-mode:normal" stroke-linecap="round" stroke-linejoin="round" stroke-miterlimit="0" stroke-width="1.549" d="M-365.5 1178.617v-2.755h17v11.02h-4v3.74l-3.217-3.74h-9.783v-5.51" color="#000" overflow="visible" transform="matrix(-.6469 0 0 .64392 -480.94 431.7)"></path><g fill="#01d1ff" transform="matrix(-.6469 0 0 .64392 -483.155 438.783)"><circle cx="-364" cy="1170.362" r="1"></circle><circle cx="-361" cy="1170.362" r="1"></circle><circle cx="-358" cy="1170.362" r="1"></circle></g><path fill="#00a5ff" d="M-247.683 1191.759a.644.647 90 0 1 .161.021.644.647 90 0 0-.485.623.644.647 90 0 0 .485.622.644.647 90 0 1-.161.022.644.647 90 0 1-.647-.644.644.647 90 0 1 .647-.644zm-1.941 0a.644.647 90 0 1 .162.021.644.647 90 0 0-.485.623.644.647 90 0 0 .485.622.644.647 90 0 1-.162.022.644.647 90 0 1-.647-.644.644.647 90 0 1 .647-.644zm-1.94 0a.644.647 90 0 1 .161.021.644.647 90 0 0-.485.623.644.647 90 0 0 .485.622.644.647 90 0 1-.162.022.644.647 90 0 1-.647-.644.644.647 90 0 1 .647-.644z"></path><path fill="none" stroke="#000" stroke-linecap="round" stroke-linejoin="round" d="M-237.743 1187.976a10.833 10.798 0 0 1-8.795 10.605m9.337-14.098c0-.12-.002-2.658-.006-2.777a11.264 11.264 0 0 0-5.682-9.41 11.46 11.46 0 0 0-11.375 0 11.262 11.262 0 0 0-5.686 9.563l-.002 1.816"></path><path fill="#fd5b6a" stroke="#000" stroke-linecap="round" stroke-linejoin="round" d="M-258.326 1184.75h1.083c.6 0 1.084.478 1.084 1.073s-.484 1.074-1.084 1.074h-1.083"></path><path fill="#00a5ff" d="M-261.576 1183.675v4.296h1.625c1.083 0 1.625-.537 1.625-1.61v-1.075c0-1.074-.542-1.61-1.625-1.61z"></path><path fill="#00a5ff" stroke="#000" stroke-linecap="round" stroke-linejoin="round" d="M-248.78 1197.638c-.412 0-.744.48-.744 1.074 0 .595.332 1.074.745 1.074h2.234v-2.148h-2.234z"></path><rect width="1" height="4" x="-261.1" y="1183.862" fill="#fff" rx="0" ry="0"></rect><path fill="none" stroke="#000" stroke-linecap="round" stroke-linejoin="round" d="M-261.576 1183.675v4.296h1.625c1.083 0 1.625-.537 1.625-1.61v-1.075c0-1.074-.542-1.61-1.625-1.61z"></path><rect width="4.017" height="6.444" x="-239.593" y="1182.601" fill="#fd5b6a" rx="2.009" ry="1.991"></rect><path fill="#fe2b70" d="M-237.584 1182.6c-.25 0-.488.05-.709.133.76.283 1.3 1.004 1.3 1.86v2.46c0 .856-.54 1.577-1.3 1.86a1.996 1.996 0 0 0 2.717-1.86v-2.46a1.996 1.996 0 0 0-2.008-1.993z"></path><rect width="4.017" height="6.444" x="-239.593" y="1182.601" fill="none" stroke="#000" stroke-linecap="round" stroke-linejoin="round" rx="2.009" ry="1.991"></rect></g></svg>