<svg xmlns="http://www.w3.org/2000/svg" enable-background="new 0 0 64 64" viewBox="0 0 64 64" id="speed-meter"><path fill="#34495c" d="M32,64C14.36,64,0,49.64,0,32S14.36,0,32,0s32,14.36,32,32S49.64,64,32,64z M32,1.94
			C15.42,1.94,1.94,15.42,1.94,32S15.42,62.06,32,62.06S62.06,48.58,62.06,32S48.58,1.94,32,1.94z"></path><path fill="#f6b64e" d="M14.9,32.97H6.25c-0.54,0-0.97-0.43-0.97-0.97C5.28,17.26,17.26,5.27,32,5.27c7.97,0,15.47,3.52,20.58,9.65
			c0.34,0.41,0.29,1.02-0.12,1.37c-0.41,0.34-1.02,0.29-1.37-0.12C46.35,10.47,39.39,7.21,32,7.21c-13.34,0-24.26,10.6-24.77,23.82
			h6.73c0.51-9.51,8.4-17.09,18.04-17.09c4.94,0,9.55,1.95,12.97,5.49c0.37,0.39,0.36,1-0.02,1.37c-0.38,0.37-1,0.36-1.37-0.02
			c-3.05-3.16-7.17-4.9-11.58-4.9c-8.89,0-16.13,7.23-16.13,16.12C15.87,32.53,15.44,32.97,14.9,32.97z"></path><path fill="#f6b64e" d="M57.77,32.97H49.1c-0.54,0-0.97-0.43-0.97-0.97c0-3.73-1.31-7.37-3.68-10.25c-0.34-0.41-0.28-1.02,0.13-1.37
			c0.41-0.34,1.02-0.28,1.36,0.13c2.45,2.98,3.89,6.68,4.09,10.52h6.74c-0.21-5.36-2.16-10.53-5.54-14.68
			c-0.34-0.41-0.28-1.03,0.14-1.36c0.42-0.34,1.03-0.28,1.36,0.14c3.87,4.74,6,10.73,6,16.88C58.74,32.53,58.3,32.97,57.77,32.97z"></path><path fill="#f6b64e" d="M46.84 24.47c-.33 0-.64-.16-.83-.46-.28-.46-.14-1.05.32-1.33l7.4-4.53c.46-.28 1.05-.14 1.33.32.28.46.14 1.05-.32 1.33l-7.4 4.53C47.19 24.43 47.01 24.47 46.84 24.47zM40.52 18.16c-.18 0-.36-.05-.52-.15-.45-.29-.59-.89-.3-1.34l4.65-7.33c.29-.45.88-.59 1.34-.3.45.29.59.89.3 1.34l-4.65 7.33C41.16 18 40.84 18.16 40.52 18.16zM32 15.88c-.54 0-.97-.43-.97-.97V6.24c0-.54.43-.97.97-.97.54 0 .97.43.97.97v8.67C32.97 15.45 32.54 15.88 32 15.88zM23.46 18.17c-.32 0-.64-.16-.82-.45L18 10.38c-.29-.45-.15-1.05.3-1.34.45-.29 1.05-.15 1.34.3l4.64 7.34c.29.45.15 1.05-.3 1.34C23.81 18.12 23.64 18.17 23.46 18.17zM17.05 24.68c-.18 0-.35-.05-.51-.15l-7.35-4.6c-.45-.28-.59-.88-.31-1.34.28-.45.88-.59 1.34-.31l7.35 4.6c.45.28.59.88.31 1.34C17.69 24.51 17.37 24.68 17.05 24.68zM44.7 51.15h-6.1c-.54 0-.97-.43-.97-.97v-2.85l-2.07.05c-.54 0-.97-.43-.97-.97v-1.49h-2.33c-.54 0-.97-.43-.97-.97v-5.84c0-.54.43-.97.97-.97.54 0 .97.43.97.97v4.87h1.75c.85 0 1.54.69 1.54 1.54v.91h1.15c1.04 0 1.89.85 1.89 1.89v1.88h5.13c.54 0 .97.43.97.97S45.23 51.15 44.7 51.15zM37.68 58.34h-8.84c-.26 0-.5-.1-.69-.28l-2.47-2.47h-2.64c-.88 0-1.6-.71-1.6-1.59v-1.27h-2.16c-.54 0-.97-.43-.97-.97s.43-.97.97-.97h3.12c.54 0 .97.43.97.97v1.89h2.7c.26 0 .5.1.69.28l2.47 2.47h8.43l-.05-3.06c0-.54.43-.97.97-.97h6.1c.54 0 .97.43.97.97s-.43.97-.97.97h-5.13v2.14c0 .52-.22 1.03-.61 1.39C38.6 58.16 38.15 58.34 37.68 58.34zM22.43 49.57h-3.12c-.54 0-.97-.43-.97-.97 0-.54.43-.97.97-.97h2.16v-1.26c0-.88.72-1.6 1.6-1.6h1.78v-.25c0-.85.69-1.54 1.54-1.54h1.75v-4.87c0-.54.43-.97.97-.97s.97.43.97.97v5.84c0 .54-.43.97-.97.97h-2.32v.82c0 .54-.43.97-.97.97H23.4v1.89C23.4 49.14 22.97 49.57 22.43 49.57z"></path><path fill="#f6b64e" d="M35.38 39.08h-9.39c-.54 0-.97-.43-.97-.97 0-.54.43-.97.97-.97h9.39c.54 0 .97.43.97.97C36.34 38.65 35.91 39.08 35.38 39.08zM44.7 57.42c-.54 0-.97-.43-.97-.97v-9.39c0-.54.43-.97.97-.97.54 0 .97.43.97.97v9.39C45.66 56.99 45.23 57.42 44.7 57.42zM19.3 55.84c-.54 0-.97-.43-.97-.97v-9.39c0-.54.43-.97.97-.97.54 0 .97.43.97.97v9.39C20.27 55.41 19.84 55.84 19.3 55.84z"></path><path fill="#34495c" d="M35.81,29.57c-0.28,0-0.57-0.12-0.76-0.37c-0.33-0.42-0.26-1.03,0.15-1.36l5.83-4.64l-6.39,3.87
				c-0.46,0.28-1.05,0.13-1.33-0.33c-0.28-0.46-0.13-1.05,0.33-1.33l19.34-11.7c0.44-0.27,1.01-0.14,1.3,0.28
				c0.29,0.42,0.21,0.99-0.19,1.31L36.42,29.36C36.24,29.5,36.02,29.57,35.81,29.57z"></path><path fill="#34495c" d="M32.16,34.1c-0.3,0-0.61-0.03-0.91-0.09c-1.24-0.24-2.3-0.95-3.01-1.99c-0.7-1.04-0.96-2.3-0.72-3.53
				c0.24-1.23,0.95-2.3,1.99-3.01c2.15-1.45,5.09-0.88,6.54,1.27c0.7,1.04,0.96,2.3,0.72,3.53c-0.24,1.23-0.95,2.3-1.99,3.01l0,0
				C33.99,33.83,33.09,34.1,32.16,34.1z M32.14,26.62c-0.53,0-1.07,0.15-1.55,0.47c-0.61,0.41-1.03,1.04-1.17,1.77
				c-0.14,0.73,0.01,1.47,0.42,2.08c0.41,0.61,1.04,1.03,1.77,1.17c0.73,0.14,1.47-0.01,2.08-0.42c0,0,0,0,0,0
				c0.61-0.41,1.03-1.04,1.17-1.77c0.14-0.73-0.01-1.47-0.42-2.08C33.91,27.05,33.03,26.62,32.14,26.62z"></path></svg>