<svg xmlns="http://www.w3.org/2000/svg" viewBox="0 0 64 64" id="steering"><circle cx="32" cy="32" r="27" fill="#fff265"></circle><circle cx="32" cy="32" r="4" fill="#bce4fa"></circle><path fill="#756f90" d="M12.19 32.24h-.1l-.11 0-.09 0a.73.73 0 0 0-.2.05.6.6 0 0 0-.16.08.58.58 0 0 0-.15.11l-.13.14a1.4 1.4 0 0 0-.1.16 1.07 1.07 0 0 0-.07.19.32.32 0 0 1 0 .09s0 .07 0 .11a.3.3 0 0 0 0 .1A21.09 21.09 0 0 0 28.81 52.76H29a.29.29 0 0 0 .1 0 .94.94 0 0 0 .24-.06l.13-.08a1.09 1.09 0 0 0 .17-.13l.1-.12a.77.77 0 0 0 .1-.18.88.88 0 0 0 .05-.15s0-.06 0-.1 0-.07 0-.11a.3.3 0 0 0 0-.1A21.09 21.09 0 0 0 12.19 32.24zM12.63 28H20a1 1 0 0 0 .78-.38l2.8-3.49A3 3 0 0 1 25.92 23H38.08a3 3 0 0 1 2.34 1.13l2.8 3.49A1 1 0 0 0 44 28h7.37a1 1 0 0 0 1-1.25 21 21 0 0 0-40.68 0 1 1 0 0 0 1 1.25zM52.94 33.19s0-.07 0-.11a.32.32 0 0 1 0-.09 1.46 1.46 0 0 0-.07-.19 1.4 1.4 0 0 0-.1-.16l-.12-.13-.16-.13-.16-.07a1.05 1.05 0 0 0-.21-.06l-.08 0-.11 0h-.1A21.09 21.09 0 0 0 34 51.71a.3.3 0 0 0 0 .1s0 .07 0 .11 0 .06 0 .1a.88.88 0 0 0 0 .15.77.77 0 0 0 .1.18l.1.12a1.09 1.09 0 0 0 .17.13l.13.08a.94.94 0 0 0 .24.06.29.29 0 0 0 .1 0h.21A21.09 21.09 0 0 0 53 33.29.3.3 0 0 0 52.94 33.19z"></path><path fill="#231f20" d="M32,59A27,27,0,1,1,59,32,27,27,0,0,1,32,59ZM32,7A25,25,0,1,0,57,32,25,25,0,0,0,32,7Z"></path><path fill="#231f20" d="M32 36a4 4 0 1 1 4-4A4 4 0 0 1 32 36zm0-6a2 2 0 1 0 2 2A2 2 0 0 0 32 30zM35 52.77H35A1 1 0 0 1 34 51.71 21.09 21.09 0 0 1 51.81 32.24a1 1 0 1 1 .3 2A19.06 19.06 0 0 0 36 51.83 1 1 0 0 1 35 52.77zM29 52.77a1 1 0 0 1-1-.94A19.06 19.06 0 0 0 11.89 34.22a1 1 0 0 1-.84-1.14 1 1 0 0 1 1.14-.84A21.09 21.09 0 0 1 30 51.71 1 1 0 0 1 29 52.77z"></path><path fill="#231f20" d="M51.37 28H44a1 1 0 0 1-.78-.38l-2.8-3.49A3 3 0 0 0 38.08 23H25.92a3 3 0 0 0-2.34 1.13l-2.8 3.49A1 1 0 0 1 20 28H12.63a1 1 0 0 1-1-1.25 21 21 0 0 1 40.68 0 1 1 0 0 1-1 1.25zm-6.89-2H50A19 19 0 0 0 14 26h5.55L22 22.88A5 5 0 0 1 25.92 21H38.08A5 5 0 0 1 42 22.88zM35 52.77a1 1 0 0 1-.15-2A19.06 19.06 0 0 0 51 33.17 1 1 0 0 1 52 32.23 1 1 0 0 1 53 33.29 21.09 21.09 0 0 1 35.19 52.76zM29 52.77h-.15A21.09 21.09 0 0 1 11 33.29a1 1 0 0 1 2-.12A19.06 19.06 0 0 0 29.11 50.78a1 1 0 0 1-.15 2z"></path></svg>