<svg xmlns="http://www.w3.org/2000/svg" enable-background="new 0 0 512 512" viewBox="0 0 512 512" id="temperature-minus"><circle cx="430.404" cy="59.193" r="59.719" fill="#f6ce6e"></circle><path fill="#f3f3f3" d="M452.034,64.638h-43.264c-3.008,0-5.446-2.437-5.446-5.446c0-3.01,2.439-5.446,5.446-5.446h43.264
				c3.008,0,5.446,2.437,5.446,5.446C457.481,62.201,455.042,64.638,452.034,64.638z"></path><path fill="#d1dee7" d="M318.498,47.473v432.001c0,17.673-14.327,32-32,32H64.658c-17.673,0-32-14.327-32-32V47.473
			c0-17.673,14.327-32,32-32h221.841C304.171,15.473,318.498,29.8,318.498,47.473z"></path><path fill="#e99b95" d="M214.987,318.358c30.584,13.443,51.85,44.027,51.85,79.589c0,49.2-40.858,88.838-90.579,86.842
			c-45.574-1.83-82.828-40.147-83.386-85.754c-0.441-36.027,21.02-67.026,51.843-80.677V77.221
			c0-19.405,15.731-35.136,35.136-35.136l0,0c19.405,0,35.136,15.731,35.136,35.136
			C214.987,150.726,214.987,264.361,214.987,318.358z"></path><path fill="#f7c84b" d="M179.875,351.969c-3.008,0-5.446-2.437-5.446-5.446v-47.143c0-3.011,2.439-5.446,5.446-5.446
				s5.446,2.437,5.446,5.446v47.143C185.321,349.533,182.882,351.969,179.875,351.969z"></path><path fill="#f6ce6e" d="M179.874,449.305c-28.357,0-51.426-23.036-51.426-51.354c0-28.357,23.071-51.426,51.426-51.426
			s51.426,23.071,51.426,51.426C231.3,426.269,208.23,449.305,179.874,449.305z"></path><path fill="#afbec5" d="M84.337 103.367h24.117c3.008 0 5.446-2.437 5.446-5.446s-2.439-5.446-5.446-5.446H84.337c-3.008 0-5.446 2.437-5.446 5.446S81.329 103.367 84.337 103.367zM108.454 133.091H96.396c-3.008 0-5.446 2.437-5.446 5.446 0 3.011 2.439 5.446 5.446 5.446h12.059c3.008 0 5.446-2.437 5.446-5.446C113.901 135.527 111.462 133.091 108.454 133.091zM108.454 173.708H84.337c-3.008 0-5.446 2.437-5.446 5.446s2.439 5.446 5.446 5.446h24.117c3.008 0 5.446-2.437 5.446-5.446S111.462 173.708 108.454 173.708zM108.454 214.325H96.396c-3.008 0-5.446 2.437-5.446 5.446s2.439 5.446 5.446 5.446h12.059c3.008 0 5.446-2.437 5.446-5.446S111.462 214.325 108.454 214.325zM108.454 254.942H96.396 84.337c-3.008 0-5.446 2.437-5.446 5.446 0 3.011 2.439 5.446 5.446 5.446h12.059 12.059c3.008 0 5.446-2.437 5.446-5.446C113.901 257.379 111.462 254.942 108.454 254.942z"></path></svg>