<svg xmlns="http://www.w3.org/2000/svg" width="48" height="48" id="transport"><g transform="translate(0 -1004.362)"><circle cx="37.045" cy="28.409" r="12.5" fill="#50b748" fill-rule="evenodd" transform="matrix(1.92 0 0 1.92 -47.127 973.817)"></circle><path style="line-height:normal;text-indent:0;text-align:start;text-decoration-line:none;text-decoration-style:solid;text-decoration-color:#000;text-transform:none;block-progression:tb;isolation:auto;mix-blend-mode:normal" fill="#10a711" d="M31.557 12.988 16.439 13c-.21 0-.317.06-.447.205s-.249.39-.332.676l-1.115 3.846-1.219-1.22c-.013-.012-.034-.018-.049-.028a.498.498 0 0 0-.309-.084l-1.49.056c-1.004.038-1.478 1.5-1.478 2.065 0 .1.03.17.068.228.007.01.012.02.02.03.007.008.01.02.017.027l2.415 2.414-1.522 1.435V30.707a.261.261 0 0 0 .078.197l.002.004.004.004 1.09 1.09h-.19a.52.52 0 0 1 .016.13v1.136c0 .104.021.204.057.293v.002c.011.027.034.046.049.072.03.054.06.114.103.158l.002.002 14.074 14.074a24 24 0 0 0 21.46-20.564L37.278 16.842c-.017-.017-.039-.025-.056-.041a1.235 1.235 0 0 0-.233-.164c-.046-.026-.089-.056-.138-.075-.022-.008-.045-.012-.067-.019a.974.974 0 0 0-.316-.045l-1.115.043-3.395-3.395c-.032-.031-.067-.046-.1-.068-.02-.013-.039-.033-.06-.043a.562.562 0 0 0-.242-.047z" color="#000" font-family="sans-serif" font-weight="400" transform="translate(0 1004.362)"></path><path style="line-height:normal;text-indent:0;text-align:start;text-decoration-line:none;text-decoration-style:solid;text-decoration-color:#000;text-transform:none;block-progression:tb;isolation:auto;mix-blend-mode:normal" fill="#fff" d="m31.557 1017.35-15.118.012c-.21 0-.317.06-.447.205-.13.144-.249.39-.332.675l-1.54 5.32c.967.178 4.684.796 9.878.796 5.2 0 8.918-.627 9.88-.805l-1.542-5.322c-.083-.286-.203-.53-.332-.674-.13-.145-.237-.207-.447-.207zm-18.588 3.406-1.49.057c-1.005.038-1.479 1.5-1.479 2.064 0 .435.473.417.477.418l2.222-.086.418.42a.5.5 0 1 0 .707-.705l-.351-.354v-1.123c0-.266 0-.71-.504-.691zm23.5.103-1.492.06c-.504.019-.504.462-.504.728v.994l-.35.348a.5.5 0 1 0 .705.709l.344-.344 2.299-.088c.003 0 .476-.018.476-.453 0-.565-.473-1.991-1.478-1.953zm-2.112 3.625c-.362.073-4.514.874-10.359.874-5.799 0-9.916-.78-10.336-.862l-2.664 2.516v8.058c-.01.156.133.291.3.291h4.794c.208-.58.76-1.002 1.406-1.002l13-.01c.648 0 1.2.423 1.408 1.004h4.791c.168 0 .298-.126.301-.328v-8.024l-2.64-2.517zm1.125 3.862a.5.5 0 0 1 .516.5v4a.5.5 0 0 1-.5.5h-4a.5.5 0 0 1-.5-.514c.032-1.077.363-2.118 1.096-2.93.732-.81 1.845-1.367 3.342-1.552h.046zm-4.984 0a.5.5 0 0 1 .475.654l-1.3 4.002a.5.5 0 0 1-.476.346h-10.4a.5.5 0 0 1-.475-.346l-1.3-3.99a.5.5 0 0 1 .476-.656l13-.01zm-18.039.01h.099c1.512.188 2.631.732 3.364 1.54.733.81 1.054 1.853 1.076 2.946a.5.5 0 0 1-.5.512h-4a.5.5 0 0 1-.5-.5v-4a.5.5 0 0 1 .461-.5zm17.35.988-11.623.01.326 1 10.972-.01.325-1zm5.189.154c-.968.215-1.706.573-2.162 1.078-.426.472-.544 1.121-.648 1.774h2.81v-2.852zm-22 .01v2.854h2.818c-.097-.663-.21-1.318-.634-1.785-.453-.5-1.2-.854-2.184-1.069zm16.16 1.842-10.322.01.324.992h9.674l.324-1.002zm3.819 5.004a.496.496 0 0 1 .017.139v1.135c0 .418.315.732.715.732h1.572a.71.71 0 0 0 .713-.732v-1.274h-3.017zm-20.995.01a.52.52 0 0 1 .016.131v1.135a.71.71 0 0 0 .713.732h1.572c.4 0 .715-.314.715-.732v-1.266h-3.016z" color="#000" font-family="sans-serif" font-weight="400" overflow="visible"></path></g></svg>